<?xml version="1.0" encoding="UTF-8"?>
<svg version="1.1" xmlns="http://www.w3.org/2000/svg" width="4296" height="4296">
<path d="M0 0 C6.04441675 3.6452194 12.16028068 7.16283348 18.2849884 10.67118835 C27.1609214 15.76770048 35.98885657 20.9381828 44.7849884 26.17118835 C54.72002956 32.08052248 64.70149945 37.90197946 74.72200012 43.66508484 C81.9652725 47.83098146 89.19430994 52.02017498 96.4099884 56.23368835 C97.39394592 56.8082074 98.37790344 57.38272644 99.39167786 57.97465515 C103.34290462 60.28254038 107.29342601 62.59163159 111.24397278 64.90068054 C114.21564345 66.63725671 117.18768214 68.37320027 120.1599884 70.10868835 C121.14716858 70.68514099 122.13434875 71.26159363 123.15144348 71.85551453 C130.4511019 76.11320491 137.77199446 80.33314887 145.0974884 84.54618835 C153.99395729 89.66404949 162.8415165 94.857663 171.6599884 100.10868835 C181.39548721 105.90481751 191.19388732 111.57446295 201.04469299 117.1709137 C210.8127338 122.72319347 220.48879996 128.41839618 230.14045715 134.17118835 C238.13925379 138.92773176 246.19381573 143.57459428 254.2849884 148.17118835 C264.64136604 154.05464505 274.90869003 160.07262635 285.14045715 166.17118835 C293.139258 170.92773427 301.19388736 175.57446297 309.2849884 180.17118835 C318.54873677 185.4346452 327.7544807 190.78298903 336.9099884 196.23368835 C349.96373259 204.00501298 363.11088869 211.60613987 376.2849884 219.17118835 C390.63919309 227.41389615 404.94617439 235.72460922 419.17268372 244.18608093 C427.98294852 249.41868623 436.84341451 254.55930193 445.72639465 259.6672821 C453.92183317 264.38015534 462.09181593 269.13507469 470.25325012 273.90653992 C477.51758415 278.14972012 484.80449748 282.3524997 492.0974884 286.54618835 C502.17630566 292.34512508 512.18950675 298.24820591 522.18318176 304.19242859 C530.87112369 309.35239928 539.61004032 314.41841782 548.37043762 319.45414734 C556.57423047 324.17370623 564.74835214 328.94176709 572.9099884 333.73368835 C573.51964447 334.09160461 574.12930054 334.44952087 574.75743103 334.81828308 C577.18694528 336.24465528 579.61644866 337.67104598 582.04586792 339.09757996 C587.89028251 342.5284534 593.74278159 345.94541018 599.5974884 349.35868835 C600.57193909 349.92684265 601.54638977 350.49499695 602.55036926 351.08036804 C605.46175848 352.77756652 608.37333584 354.47444171 611.2849884 356.17118835 C627.73116771 365.75509264 644.16058574 375.36720824 660.579422 384.99784851 C666.04500945 388.2036344 671.51157585 391.40775014 676.97807312 394.61198425 C678.78689891 395.67230828 680.59564741 396.73276402 682.40437317 397.79325867 C687.85994896 400.99187627 693.31592624 404.1897994 698.77386475 407.38438416 C713.29311663 415.88266771 727.79473577 424.40922573 742.25764465 433.0032196 C746.57599169 435.56840995 750.90020367 438.1230406 755.23136902 440.66651917 C771.86226772 450.43458769 788.26113429 460.42370398 804.2849884 471.17118835 C805.97506691 472.29101875 807.66517066 473.41081105 809.3553009 474.53056335 C819.21757429 481.11747443 828.51524339 488.1695359 837.60871887 495.77861023 C839.84502271 497.6364426 842.12540121 499.4357368 844.4099884 501.23368835 C860.61858031 514.19515 875.59833269 528.40440942 890.2849884 543.04618835 C890.77989777 543.53841888 891.27480713 544.03064941 891.78471375 544.53779602 C897.50573356 550.23527988 903.0529848 556.01845964 908.2849884 562.17118835 C909.23406936 563.25448278 910.1845372 564.33656411 911.1365509 565.4172821 C971.66436173 634.80624355 1006.77403498 718.6355935 1008.82575989 810.82719421 C1008.87167565 812.77931235 1008.9178786 814.73142375 1008.96434307 816.6835289 C1009.0894338 821.97602828 1009.21029508 827.26861654 1009.33030367 832.56123328 C1009.45865991 838.19289346 1009.59073136 843.82446679 1009.72221375 849.45605469 C1010.00303162 861.51856598 1010.27849061 873.58119591 1010.5526619 885.64385986 C1010.72219841 893.10208608 1010.8929815 900.56028347 1011.06388855 908.01847839 C1016.78095881 1157.6922916 1016.78095881 1157.6922916 1013.2849884 1220.17118835 C1013.23407043 1220.90847168 1013.18315247 1221.645755 1013.13069153 1222.40538025 C1007.27422034 1305.90411082 993.72069799 1403.67661025 937.2849884 1469.17118835 C936.60694153 1469.97169617 935.92889465 1470.77220398 935.2303009 1471.5969696 C924.8294321 1483.63688583 911.82228952 1492.2249373 898.65022278 1500.93925476 C892.47332425 1505.02873406 886.34637834 1509.19034975 880.2224884 1513.35868835 C879.14571838 1514.09160095 878.06894836 1514.82451355 876.95954895 1515.57963562 C869.16680097 1520.88623942 861.37737605 1526.19772257 853.58869934 1531.51029968 C843.55227638 1538.35519776 833.50523722 1545.18446866 823.45832825 1552.01396179 C818.23348808 1555.5657919 813.00926669 1559.11853188 807.7849884 1562.67118835 C805.7016581 1564.08785947 803.61832476 1565.50452614 801.5349884 1566.92118835 C800.5037384 1567.62243835 799.4724884 1568.32368835 798.4099884 1569.04618835 C739.03498831 1609.42118842 739.03498831 1609.42118842 735.90925598 1611.54667664 C733.82835194 1612.96169789 731.74745999 1614.37673692 729.6665802 1615.79179382 C724.42117824 1619.35878209 719.17555891 1622.92544992 713.92951965 1626.49150085 C704.0437712 1633.21186187 694.16015151 1639.9352801 684.2849884 1646.67118835 C673.3502723 1654.12982409 662.40498038 1661.57285868 651.45832825 1669.01396179 C646.23348808 1672.5657919 641.00926669 1676.11853188 635.7849884 1679.67118835 C633.7016581 1681.08785947 631.61832476 1682.50452614 629.5349884 1683.92118835 C628.5037384 1684.62243835 627.4724884 1685.32368835 626.4099884 1686.04618835 C567.03498838 1726.42118837 567.03498838 1726.42118837 563.90705872 1728.54814148 C561.83344252 1729.95822643 559.75987445 1731.36838215 557.68635559 1732.77861023 C552.88841863 1736.04162995 548.09005341 1739.30401297 543.28988647 1742.56375122 C526.73951009 1753.79765989 526.73951009 1753.79765989 510.2849884 1765.17118835 C511.35813293 1766.24239929 511.35813293 1766.24239929 512.45295715 1767.33525085 C514.27507896 1769.15673175 516.08862708 1770.98563831 517.89826965 1772.81962585 C518.78901184 1773.71939148 519.67975403 1774.6191571 520.5974884 1775.54618835 C521.48049622 1776.44079773 522.36350403 1777.3354071 523.27326965 1778.25712585 C526.13195276 1781.08171905 529.15385411 1783.69699164 532.1900177 1786.32792664 C535.72256673 1789.43604284 539.12264327 1792.68237903 542.5349884 1795.92118835 C548.44879724 1801.5108824 554.39629964 1807.05580038 560.40608215 1812.5422821 C568.91516323 1820.31244705 577.35147418 1828.1603402 585.76863098 1836.02983093 C590.54789799 1840.49388672 595.36391442 1844.91536804 600.1912384 1849.32743835 C603.74476343 1852.5848363 607.26441375 1855.87826389 610.7849884 1859.17118835 C616.27305608 1864.30366369 621.79094065 1869.40093106 627.33576965 1874.4719696 C635.8605534 1882.27412267 644.32720848 1890.13765336 652.76863098 1898.02983093 C657.54789799 1902.49388672 662.36391442 1906.91536804 667.1912384 1911.32743835 C670.74476343 1914.5848363 674.26441375 1917.87826389 677.7849884 1921.17118835 C683.27305608 1926.30366369 688.79094065 1931.40093106 694.33576965 1936.4719696 C702.213763 1943.68215954 710.04619017 1950.94063096 717.8474884 1958.23368835 C723.31515642 1963.34478446 728.81270969 1968.42084 734.33576965 1973.4719696 C742.8605534 1981.27412267 751.32720848 1989.13765336 759.76863098 1997.02983093 C764.54789799 2001.49388672 769.36391442 2005.91536804 774.1912384 2010.32743835 C777.74476343 2013.5848363 781.26441375 2016.87826389 784.7849884 2020.17118835 C790.27305608 2025.30366369 795.79094065 2030.40093106 801.33576965 2035.4719696 C809.8605534 2043.27412267 818.32720848 2051.13765336 826.76863098 2059.02983093 C831.54789799 2063.49388672 836.36391442 2067.91536804 841.1912384 2072.32743835 C844.74476343 2075.5848363 848.26441375 2078.87826389 851.7849884 2082.17118835 C857.27305608 2087.30366369 862.79094065 2092.40093106 868.33576965 2097.4719696 C876.213763 2104.68215954 884.04619017 2111.94063096 891.8474884 2119.23368835 C897.31515642 2124.34478446 902.81270969 2129.42084 908.33576965 2134.4719696 C916.8605534 2142.27412267 925.32720848 2150.13765336 933.76863098 2158.02983093 C938.54789799 2162.49388672 943.36391442 2166.91536804 948.1912384 2171.32743835 C951.74476343 2174.5848363 955.26441375 2177.87826389 958.7849884 2181.17118835 C964.27305608 2186.30366369 969.79094065 2191.40093106 975.33576965 2196.4719696 C983.8605534 2204.27412267 992.32720848 2212.13765336 1000.76863098 2220.02983093 C1005.54789799 2224.49388672 1010.36391442 2228.91536804 1015.1912384 2233.32743835 C1018.74476343 2236.5848363 1022.26441375 2239.87826389 1025.7849884 2243.17118835 C1031.27305608 2248.30366369 1036.79094065 2253.40093106 1042.33576965 2258.4719696 C1050.213763 2265.68215954 1058.04619017 2272.94063096 1065.8474884 2280.23368835 C1071.31515642 2285.34478446 1076.81270969 2290.42084 1082.33576965 2295.4719696 C1090.8605534 2303.27412267 1099.32720848 2311.13765336 1107.76863098 2319.02983093 C1112.54789799 2323.49388672 1117.36391442 2327.91536804 1122.1912384 2332.32743835 C1125.74476343 2335.5848363 1129.26441375 2338.87826389 1132.7849884 2342.17118835 C1138.27305608 2347.30366369 1143.79094065 2352.40093106 1149.33576965 2357.4719696 C1157.213763 2364.68215954 1165.04619017 2371.94063096 1172.8474884 2379.23368835 C1178.31515642 2384.34478446 1183.81270969 2389.42084 1189.33576965 2394.4719696 C1192.42888746 2397.30288935 1195.51535061 2400.14082669 1198.5974884 2402.98368835 C1199.39799622 2403.72123352 1199.39799622 2403.72123352 1200.2146759 2404.47367859 C1203.1771534 2407.20790106 1206.1238112 2409.95761025 1209.05451965 2412.72587585 C1217.16859125 2420.38614855 1217.16859125 2420.38614855 1225.7224884 2427.54618835 C1248.92299815 2446.23069992 1272.75468391 2474.2416756 1276.75764465 2504.7766571 C1277.7955422 2516.47984669 1276.83952059 2526.73089708 1271.2849884 2537.17118835 C1270.90987122 2537.93689148 1270.53475403 2538.7025946 1270.14826965 2539.49150085 C1264.86330768 2549.3631115 1254.06353316 2561.78169091 1243.36950397 2565.910779 C1241.28418172 2566.48250924 1239.20013016 2566.95348633 1237.08235168 2567.38993835 C1236.28096362 2567.56908374 1235.47957556 2567.74822912 1234.65390301 2567.93280315 C1231.97419705 2568.52779886 1229.29002112 2569.09928068 1226.6053009 2569.67118835 C1224.66256142 2570.09797208 1222.72016186 2570.52630563 1220.77807617 2570.95605469 C1216.56195418 2571.88587643 1212.34378542 2572.80552413 1208.12376404 2573.71748352 C1201.2781982 2575.19722947 1194.43782905 2576.70006521 1187.59822083 2578.20707703 C1180.24985169 2579.82539898 1172.90129029 2581.44278573 1165.5512085 2583.05331421 C1147.29764088 2587.05451806 1129.05862824 2591.11787571 1110.82795715 2595.2219696 C1110.1706223 2595.36993477 1109.51328744 2595.51789993 1108.83603334 2595.67034888 C1101.4663494 2597.32937503 1094.09702999 2598.99001631 1086.7278595 2600.65132141 C1074.41458972 2603.42714505 1062.09972546 2606.1958833 1049.78494644 2608.96500206 C1047.04408382 2609.58131897 1044.30323665 2610.19770451 1041.56240463 2610.81415749 C1012.34811675 2617.38487477 983.12964443 2623.93688535 953.9099884 2630.48368835 C951.50918041 2631.02162037 949.10837271 2631.55955372 946.70756531 2632.0974884 C937.22049788 2634.22317649 927.73341543 2636.34879747 918.24630737 2638.4743042 C894.16556911 2643.869511 870.08589596 2649.26946405 846.00648117 2654.67057419 C842.67302551 2655.41826415 839.3395587 2656.16590438 836.00608826 2656.91352844 C812.11763258 2662.27121604 788.22986229 2667.63193433 764.34358215 2672.99931335 C727.19982373 2681.34534358 690.05557217 2689.68898191 652.89466476 2697.95838928 C650.56004627 2698.4781101 648.22555474 2698.99839761 645.89109802 2699.5188446 C642.30902 2700.31732598 638.72658201 2701.11417065 635.14383125 2701.90962791 C633.24269885 2702.33206309 631.34189376 2702.75597049 629.44110107 2703.17993164 C628.31224991 2703.43010544 627.18339874 2703.68027924 626.02033997 2703.93803406 C624.56509918 2704.2615258 624.56509918 2704.2615258 623.08045959 2704.59155273 C617.50821959 2705.74694607 612.17923575 2706.33840371 606.49201965 2706.37431335 C605.38293747 2706.38483482 605.38293747 2706.38483482 604.25144958 2706.39556885 C601.86673375 2706.4130445 599.482266 2706.4194248 597.0974884 2706.42118835 C595.87788925 2706.42220047 595.87788925 2706.42220047 594.63365173 2706.42323303 C582.595439 2706.40732776 571.04235833 2705.96480104 559.2849884 2703.17118835 C558.54184387 2703.00489929 557.79869934 2702.83861023 557.03303528 2702.6672821 C515.61325206 2693.27740682 479.34184466 2672.00965181 447.4099884 2644.48368835 C446.80340393 2643.96113464 446.19681946 2643.43858093 445.57185364 2642.90019226 C441.95723314 2639.74440585 438.54733327 2636.44929647 435.18232727 2633.03013611 C433.39157652 2631.27561975 431.54773011 2629.64511709 429.63948059 2628.02030945 C424.90269655 2623.89841762 420.4828572 2619.49462522 416.0584259 2615.0422821 C415.17277954 2614.15517548 414.28713318 2613.26806885 413.37464905 2612.3540802 C411.4638524 2610.43949631 409.55397937 2608.5240431 407.64564514 2606.60700989 C404.62116165 2603.56888329 401.59275953 2600.53468252 398.563797 2597.50102234 C391.58907022 2590.51430738 384.61939071 2583.52256462 377.64976501 2576.53076172 C371.25638305 2570.11714111 364.86191139 2563.70461677 358.46336555 2557.29614735 C355.45936345 2554.28719677 352.45780831 2551.2758337 349.45817566 2548.26252747 C347.14464269 2545.93971203 344.82781917 2543.62018197 342.5115509 2541.3000946 C341.69261353 2540.47599091 340.87367615 2539.65188721 340.02992249 2538.80281067 C335.90675168 2534.6792641 331.69984743 2530.74672534 327.28204346 2526.94239807 C323.53826614 2523.6220015 320.04280385 2520.05024682 316.51741028 2516.50126648 C315.26209251 2515.24375832 315.26209251 2515.24375832 313.98141479 2513.96084595 C312.17703152 2512.15267736 310.37380371 2510.34335512 308.57162476 2508.5329895 C305.71476122 2505.66328599 302.85479185 2502.79671261 299.99385071 2499.93107605 C293.40614757 2493.33138973 286.82349494 2486.72667356 280.24089813 2480.12189484 C274.20208644 2474.06283881 268.16218162 2468.00488289 262.11820078 2461.95098257 C258.82618492 2458.65322779 255.53809862 2455.35158565 252.25068665 2452.04924011 C250.51812911 2450.31304795 248.78542984 2448.57699721 247.05256653 2446.84111023 C245.894291 2445.67508522 245.894291 2445.67508522 244.71261597 2444.48550415 C240.69187237 2440.46437305 236.57653535 2436.64246153 232.27017975 2432.93053436 C228.69067181 2429.75824923 225.34526237 2426.35311075 221.97639465 2422.96025085 C221.188284 2422.17067993 220.40017334 2421.38110901 219.58818054 2420.56761169 C217.89020072 2418.86584871 216.19337631 2417.16293222 214.49760437 2415.45896912 C211.80877072 2412.75728564 209.11675026 2410.05881382 206.42390442 2407.36112976 C200.2234118 2401.14828455 194.02759923 2394.93078314 187.83203125 2388.71302795 C181.69430642 2382.55343681 175.55456999 2376.39586858 169.41142273 2370.24168396 C166.76833295 2367.59214476 164.12829014 2364.9395954 161.48835754 2362.28691101 C159.85691507 2360.65183362 158.22533069 2359.01689781 156.59358215 2357.38212585 C155.86815216 2356.65152954 155.14272217 2355.92093323 154.39530945 2355.16819763 C150.47711149 2351.24959901 146.4532119 2347.5379617 142.25831604 2343.91867065 C138.84317887 2340.89439245 135.64768583 2337.65599524 132.43537903 2334.41923523 C131.69603622 2333.67843216 130.95669342 2332.93762909 130.19494629 2332.17437744 C128.60336976 2330.57902018 127.01294859 2328.98250961 125.42358398 2327.38494873 C122.90278049 2324.85128423 120.37878125 2322.32084201 117.85395813 2319.79118347 C111.58647722 2313.51039195 105.32446684 2307.22415535 99.06227112 2300.93809509 C93.76064987 2295.61669123 88.45695078 2290.29737464 83.1505127 2284.98077393 C80.67361353 2282.49743024 78.19976499 2280.01107538 75.72602844 2277.52458191 C74.19570105 2275.99061928 72.66523156 2274.45679839 71.13459778 2272.92314148 C70.11658333 2271.89737755 70.11658333 2271.89737755 69.07800293 2270.85089111 C65.26972831 2267.04220176 61.3443583 2263.44894311 57.26885223 2259.92920685 C53.88325705 2256.92903171 50.71250924 2253.72095207 47.5271759 2250.5110321 C46.79758667 2249.7799826 46.06799744 2249.04893311 45.31629944 2248.29573059 C43.74600355 2246.72165449 42.17686301 2245.14642512 40.60877991 2243.57014465 C38.12158254 2241.07008386 35.63118748 2238.57324763 33.13996887 2236.07719421 C26.95596286 2229.8798791 20.77742842 2223.67711821 14.59870911 2217.47453308 C9.36754871 2212.22358839 4.13430933 2206.97473224 -1.10166931 2201.72859192 C-3.5453304 2199.27848737 -5.98594008 2196.82537142 -8.42643738 2194.37211609 C-9.93654175 2192.8583764 -11.44678827 2191.34477851 -12.9571991 2189.8313446 C-13.96118744 2188.81960678 -13.96118744 2188.81960678 -14.98545837 2187.78742981 C-18.80640139 2183.96606521 -22.74692489 2180.35674246 -26.83627701 2176.82505608 C-29.57139879 2174.41730265 -32.13894786 2171.86431756 -34.69694519 2169.27104187 C-35.238004 2168.7269165 -35.77906281 2168.18279114 -36.33651733 2167.62217712 C-37.49591321 2166.4557004 -38.65417194 2165.28809248 -39.81136703 2164.11943245 C-41.65180167 2162.26137478 -43.49595577 2160.40708114 -45.34114075 2158.55374146 C-50.58177705 2153.2888571 -55.81669872 2148.01831853 -61.04704285 2142.74320984 C-64.26146751 2139.50179552 -67.48091708 2136.26544024 -70.70337296 2133.03201103 C-71.91954924 2131.80968645 -73.13383365 2130.58547611 -74.34606552 2129.35923958 C-80.54004393 2123.09432797 -86.69742091 2117.09159559 -93.72671509 2111.74516296 C-102.34677766 2104.92135195 -110.36393267 2091.7977533 -112.07944421 2080.84430605 C-112.59382082 2074.66142103 -112.35980505 2068.48232944 -112.16873169 2062.28916931 C-112.13358252 2060.25854432 -112.1021813 2058.22785148 -112.07426161 2056.19711423 C-112.01214237 2051.96298275 -111.93215473 2047.72975748 -111.83850741 2043.49620914 C-111.64943749 2034.52448238 -111.64087805 2025.55267769 -111.61751498 2016.57930702 C-111.60097221 2011.47796391 -111.56799645 2006.3767309 -111.53573608 2001.27546692 C-111.52259111 1999.14726393 -111.50946049 1997.01906086 -111.49634361 1994.8908577 C-111.48964397 1993.81206596 -111.48294433 1992.73327423 -111.47604167 1991.62179184 C-111.44024593 1985.80730024 -111.40608709 1979.99279895 -111.37168884 1974.17829895 C-111.30435724 1962.84053323 -111.23554329 1951.502777 -111.16614265 1940.16502377 C-111.10942432 1930.89548773 -111.05323161 1921.62594861 -110.9974041 1912.35640717 C-110.98928562 1911.0087392 -110.98116707 1909.66107123 -110.97304846 1908.31340326 C-110.96080217 1906.28043063 -110.94855635 1904.247458 -110.93631191 1902.21448536 C-110.82275293 1883.36179541 -110.70865213 1864.50910879 -110.59336948 1845.65642929 C-110.58904612 1844.94940622 -110.58472276 1844.24238314 -110.58026839 1843.51393513 C-110.54519383 1837.77857566 -110.51010329 1832.04321629 -110.47501172 1826.30785692 C-110.33917861 1804.10540893 -110.20499113 1781.90295156 -110.07218933 1759.70048523 C-109.92160466 1734.52565257 -109.76976913 1709.35082787 -109.61619896 1684.17601323 C-109.59960791 1681.45564733 -109.58302038 1678.7352814 -109.56643486 1676.01491547 C-109.56235283 1675.34552498 -109.5582708 1674.6761345 -109.55406508 1673.98645946 C-109.49406706 1664.14409684 -109.43496156 1654.30172908 -109.37632942 1644.45935822 C-109.2170737 1617.78440081 -109.04884446 1591.10954429 -108.85945481 1564.43478227 C-108.7651648 1551.06220678 -108.68322981 1537.68963355 -108.61315079 1524.31690906 C-108.56057198 1514.41353206 -108.49745573 1504.51025516 -108.42683701 1494.60699059 C-108.38569911 1488.78367987 -108.3493019 1482.96043894 -108.32555878 1477.13702917 C-108.303532 1471.75848404 -108.26788958 1466.38019611 -108.22210176 1461.00180238 C-108.20784167 1459.05179515 -108.19839147 1457.10174499 -108.1944546 1455.15168959 C-108.15795962 1439.2494536 -106.5443719 1423.98930509 -102.0275116 1408.67118835 C-101.64840637 1407.36782532 -101.64840637 1407.36782532 -101.26164246 1406.03813171 C-98.75731676 1397.76489946 -95.43355375 1389.96039161 -91.68229675 1382.18339539 C-90.78863695 1380.32434842 -89.92801504 1378.44951656 -89.07048035 1376.5735321 C-80.25670566 1357.89519208 -67.36681223 1340.90921591 -53.25798035 1325.9250946 C-51.468702 1323.98739686 -49.77848118 1322.05974815 -48.1134491 1320.02275085 C-46.20203764 1317.75022583 -44.41689389 1315.87320647 -42.1525116 1313.98368835 C-38.75958481 1311.10159255 -35.51500264 1308.10184771 -32.2775116 1305.04618835 C-3.80455002 1278.70528214 31.62559563 1260.04102047 64.83277893 1240.40246582 C70.06106333 1237.30854231 75.27008653 1234.18343091 80.4724884 1231.04618835 C92.76185588 1223.64751416 105.1563245 1216.4263897 117.54164124 1209.18998718 C120.21570512 1207.62728459 122.88891193 1206.06311678 125.56233215 1204.49931335 C145.37324474 1192.91914689 165.25237815 1181.45877862 185.18815613 1170.09510803 C193.27264255 1165.48571672 201.32205579 1160.82015295 209.3474884 1156.10868835 C218.96017794 1150.47111686 228.67207766 1145.02805291 238.42536926 1139.63798523 C246.13323944 1135.3763451 253.79674947 1131.04537592 261.43415833 1126.65898132 C268.19182461 1122.78283215 274.98336234 1118.96959987 281.7849884 1115.17118835 C289.47425964 1110.87651766 297.14520565 1106.55330215 304.7849884 1102.17118835 C315.49871458 1096.02829721 326.27420909 1089.99783337 337.0559845 1083.97538757 C341.41589286 1081.53929784 345.77387435 1079.0997756 350.13142395 1076.6594696 C352.25102255 1075.47263598 354.37096887 1074.28642312 356.49128723 1073.10087585 C361.11643008 1070.51354897 365.73698158 1067.91936973 370.3396759 1065.2922821 C371.46490662 1064.65190002 371.46490662 1064.65190002 372.61286926 1063.99858093 C373.97515436 1063.22213676 375.33549438 1062.44226529 376.69343567 1061.6582489 C381.06246617 1059.17118835 381.06246617 1059.17118835 383.2849884 1059.17118835 C380.71075493 1056.26928484 377.76380138 1054.55306995 374.42170715 1052.61650085 C373.84210236 1052.27877655 373.26249756 1051.94105225 372.66532898 1051.59309387 C370.77012402 1050.48992144 368.87130038 1049.39313847 366.9724884 1048.29618835 C365.65113525 1047.52816372 364.33009301 1046.75960393 363.00935364 1045.99052429 C360.34985963 1044.44208314 357.6893449 1042.8954194 355.02815247 1041.34989929 C349.95278065 1038.39928157 344.89860216 1035.41309841 339.8474884 1032.42118835 C338.077965 1031.37430009 336.3084338 1030.327425 334.53889465 1029.28056335 C333.67538391 1028.76945007 332.81187317 1028.25833679 331.92219543 1027.73173523 C327.37779745 1025.04262285 322.83128493 1022.35708932 318.2849884 1019.67118835 C312.86603201 1016.46972973 307.44739761 1013.26773846 302.03108215 1010.06181335 C294.14026486 1005.39285478 286.246461 1000.72944787 278.3318634 996.10087585 C266.78251807 989.34583473 255.24619125 982.57532788 243.7849884 975.67118835 C234.90199041 970.32137033 225.9840713 965.03443579 217.0349884 959.79618835 C216.43110291 959.44268311 215.82721741 959.08917786 215.20503235 958.72496033 C210.89944127 956.20517028 206.59238022 953.68789859 202.2849884 951.17118835 C197.36731621 948.2979053 192.45028793 945.42352882 187.5349884 942.54618835 C186.93078064 942.19252197 186.32657288 941.83885559 185.70405579 941.47447205 C176.34143126 935.99127558 167.02683758 930.43117605 157.73274231 924.83256531 C149.21669936 919.71065614 140.65158598 914.67615356 132.07328796 909.65959167 C119.81709021 902.49209109 107.60083971 895.25910414 95.39094543 888.01298523 C90.69229337 885.22673848 85.98884078 882.44864379 81.2849884 879.67118835 C73.1137463 874.8455629 64.94820043 870.01038392 56.7849884 865.17118835 C48.51722957 860.27014253 40.24730466 855.37281014 31.9724884 850.48368835 C30.64894348 849.70106628 30.64894348 849.70106628 29.29866028 848.90263367 C24.71153891 846.19114275 20.12035091 843.48685638 15.52326965 840.7922821 C-6.2719193 828.00205913 -26.64345278 814.37137741 -45.38298035 797.2844696 C-47.46535896 795.39742299 -49.58004223 793.56060603 -51.7150116 791.73368835 C-59.33914553 785.06065362 -66.19000151 777.86100364 -72.5040741 769.9407196 C-73.95277964 768.12599835 -75.42615147 766.3306361 -76.9259491 764.5579071 C-102.71555762 734.01758122 -116.05935407 699.10850104 -114.7150116 659.17118835 C-105.91879002 663.85984274 -97.33685742 668.8811843 -88.7775116 673.98368835 C-87.36623 674.82306733 -85.95493418 675.66242238 -84.54362488 676.50175476 C-74.77331516 682.31874076 -65.04402604 688.20144912 -55.33283997 694.11647034 C-45.21148753 700.28055974 -35.02858796 706.33328787 -24.81559753 712.34403992 C-18.56754323 716.0259642 -12.3276319 719.72162026 -6.0900116 723.42118835 C-5.40620422 723.8267395 -4.72239685 724.23229065 -4.01786804 724.65013123 C6.02376406 730.60889868 16.02256394 736.63392432 25.99232483 742.71208191 C36.05639545 748.845833 46.17998762 754.87501248 56.32298279 760.87718201 C65.74510927 766.4542438 75.12636841 772.09275368 84.4724884 777.79618835 C93.85347912 783.52045295 103.29145274 789.13564529 112.7849884 794.67118835 C122.86080322 800.54624996 132.86651924 806.52327029 142.82258606 812.59892273 C152.26810089 818.36156555 161.76259965 824.03655439 171.2849884 829.67118835 C181.38731931 835.6489885 191.45243615 841.68148905 201.4724884 847.79618835 C210.85347912 853.52045295 220.29145274 859.13564529 229.7849884 864.67118835 C239.86080322 870.54624996 249.86651924 876.52327029 259.82258606 882.59892273 C269.26810299 888.36156684 278.76267848 894.03641846 288.2849884 899.67118835 C298.53132 905.73491943 308.74272543 911.85076536 318.9099884 918.04618835 C329.61633319 924.56843158 340.38019986 930.98533593 351.18440247 937.34403992 C356.74407192 940.62030497 362.29725702 943.90748861 367.84809875 947.19868469 C369.22056846 948.01242816 370.59320796 948.82588531 371.96601868 949.63905334 C379.33858499 954.00755601 386.69333829 958.40134085 393.9959259 962.8860321 C429.9305542 985.11883801 429.9305542 985.11883801 471.38264465 985.3391571 C487.81693443 980.82835407 503.69164156 969.9697861 512.3997345 955.2922821 C522.82460992 936.64156407 525.76295543 917.90318666 520.2849884 897.17118835 C513.51211583 874.94770023 497.03706436 862.46911978 477.7408905 851.35166931 C474.52925625 849.50022199 471.32704031 847.63262773 468.12483215 845.76493835 C467.46842239 845.38229828 466.81201263 844.9996582 466.13571167 844.60542297 C459.53283973 840.74767155 452.99913155 836.78141748 446.4724884 832.79618835 C436.45314444 826.68034639 426.38730114 820.64897775 416.2849884 814.67118835 C406.1826575 808.69338821 396.11754066 802.66088766 386.0974884 796.54618835 C376.71649768 790.82192376 367.27852406 785.20673142 357.7849884 779.67118835 C347.70917358 773.79612675 337.70345757 767.81910642 327.74739075 761.74345398 C318.30187381 755.98080987 308.80729833 750.30595825 299.2849884 744.67118835 C289.0386568 738.60745728 278.82725138 732.49161135 268.6599884 726.29618835 C257.95364362 719.77394513 247.18977695 713.35704078 236.38557434 706.99833679 C230.13752004 703.31641251 223.89760871 699.62075644 217.6599884 695.92118835 C216.97618103 695.51563721 216.29237366 695.11008606 215.58784485 694.69224548 C205.54621274 688.73347803 195.54741286 682.70845239 185.57765198 676.6302948 C175.51358136 670.49654371 165.38998919 664.46736423 155.24699402 658.4651947 C145.82486753 652.8881329 136.4436084 647.24962303 127.0974884 641.54618835 C117.71648724 635.82191739 108.27827382 630.20717418 98.7849884 624.67118835 C88.81794618 618.85726311 78.90087596 612.96780719 69.0349884 606.98368835 C68.16136658 606.45509216 68.16136658 606.45509216 67.27009583 605.91581726 C63.59421876 603.69007605 59.9350759 601.43893769 56.2849884 599.17118835 C55.38715637 598.62390076 54.48932434 598.07661316 53.56428528 597.51274109 C52.75539856 597.00299744 51.94651184 596.49325378 51.1131134 595.96806335 C50.41605286 595.53461609 49.71899231 595.10116882 49.00080872 594.65458679 C45.81712991 591.90216329 45.06398166 588.17048412 44.2849884 584.17118835 C44.10580872 583.4441571 43.92662903 582.71712585 43.74201965 581.96806335 C41.83771136 570.31434765 41.88430699 557.90843401 48.7928009 548.0110321 C56.57512404 538.32837425 66.70515317 534.09607008 78.58772278 531.43022156 C83.02048885 531.11965864 84.67629747 531.97205049 88.4334259 534.26493835 C88.99871506 534.60258209 89.56400421 534.94022583 90.14642334 535.2881012 C91.99553709 536.39827163 93.8271791 537.53433941 95.6599884 538.67118835 C96.96123039 539.45895422 98.26357579 540.2449001 99.56697083 541.02909851 C102.22024462 542.6293108 104.86690858 544.23964314 107.50813293 545.85966492 C111.8609113 548.5284153 116.24170723 551.14940046 120.62458801 553.76835632 C123.66088474 555.58410017 126.69191023 557.40841851 129.7224884 559.23368835 C136.4789509 563.29585599 143.26162897 567.31318527 150.04484558 571.33042908 C161.40262249 578.05752377 172.72226696 584.84092319 183.9931488 591.71263123 C194.05193158 597.84312879 204.16994825 603.86957127 214.30787659 609.86811829 C225.16454619 616.29352436 235.9683038 622.8007661 246.72639465 629.38993835 C261.83968398 639.0610667 261.83968398 639.0610667 278.2224884 646.10868835 C279.99946106 646.67909851 279.99946106 646.67909851 281.81233215 647.2610321 C300.51498132 652.16285129 319.50464272 648.91267864 336.0193634 639.2766571 C339.63757034 636.94386579 342.80905506 634.44540058 345.86701965 631.42118835 C347.2849884 630.17118835 347.2849884 630.17118835 349.2849884 630.17118835 C349.54795715 629.59368835 349.8109259 629.01618835 350.0818634 628.42118835 C351.3483313 626.05272891 352.80820631 624.22465896 354.5349884 622.17118835 C367.60091935 605.62100915 370.18656478 586.11423384 367.8943634 565.6907196 C363.83702772 546.83451212 351.95999082 531.81274351 336.2849884 521.17118835 C331.09177637 517.8417109 325.74633832 514.7635735 320.4099884 511.67118835 C315.01917301 508.53091997 309.64072029 505.37096508 304.2849884 502.17118835 C303.61318542 501.77157898 302.94138245 501.3719696 302.2492218 500.96025085 C300.29014523 499.78577575 298.34473106 498.591498 296.4021759 497.38993835 C295.81340668 497.03927307 295.22463745 496.68860779 294.61802673 496.32731628 C291.01456001 494.0603246 289.40299585 492.28858584 288.2849884 488.17118835 C285.92553933 477.0999273 285.87191758 464.77776343 291.65608215 454.8079071 C298.20949013 445.45712114 307.48876616 441.02227267 318.1443634 437.70243835 C324.3697889 436.6493813 329.00800487 438.20473853 334.32795715 441.38993835 C334.88504364 441.71928375 335.44213013 442.04862915 336.01609802 442.38795471 C337.84178458 443.47125478 339.6569824 444.57092658 341.4724884 445.67118835 C342.76645201 446.44375972 344.06097762 447.21539047 345.35603333 447.98612976 C349.34254323 450.3643967 353.31498453 452.765498 357.2849884 455.17118835 C358.47670782 455.89223742 359.66843917 456.61326677 360.86018372 457.33427429 C365.42755179 460.09967593 369.99150052 462.87066288 374.5493927 465.6516571 C383.42029043 471.06141235 392.34296238 476.37996943 401.2849884 481.67118835 C411.38731931 487.6489885 421.45243615 493.68148905 431.4724884 499.79618835 C440.85347912 505.52045295 450.29145274 511.13564529 459.7849884 516.67118835 C469.86080322 522.54624996 479.86651924 528.52327029 489.82258606 534.59892273 C499.26810354 540.36156717 508.76270148 546.03637907 518.2849884 551.67118835 C528.42670324 557.6732136 538.53459548 563.72540851 548.5974884 569.85868835 C560.30881871 576.99467599 572.08680482 584.01298938 583.89569092 590.98628235 C590.58845845 594.93909167 597.27265064 598.90633776 603.95625305 602.87461853 C605.95785264 604.06289565 607.95977818 605.25062197 609.96174622 606.4382782 C611.23099265 607.19162759 612.5001989 607.94504469 613.7693634 608.6985321 C614.38612442 609.0645755 615.00288544 609.4306189 615.63833618 609.80775452 C618.89080812 611.74034537 622.13729548 613.68232041 625.37654114 615.63700867 C626.04884766 616.04230301 626.72115417 616.44759735 627.41383362 616.86517334 C628.6898056 617.63512009 629.96489629 618.40653011 631.23890686 619.17971802 C647.82882562 629.18946057 666.22974246 633.16794652 685.2849884 628.67118835 C704.16724514 623.6507404 719.0505927 612.95083713 729.2849884 596.17118835 C738.77939561 578.44995187 740.86354326 559.55050541 735.2849884 540.17118835 C728.37435828 519.69243461 715.40772649 507.81490173 697.2849884 497.17118835 C694.89628729 495.753047 692.50825348 494.33382454 690.1209259 492.91337585 C686.02335774 490.47677949 681.92452955 488.04236771 677.8216095 485.61479187 C668.94005257 480.35816835 660.096468 475.04436627 651.2849884 469.67118835 C640.6529836 463.18816117 629.96381407 456.80692805 619.24699402 450.4651947 C609.82486753 444.8881329 600.4436084 439.24962303 591.0974884 433.54618835 C581.71649768 427.82192376 572.27852406 422.20673142 562.7849884 416.67118835 C552.70917358 410.79612675 542.70345757 404.81910642 532.74739075 398.74345398 C523.30187591 392.98081116 513.80737715 387.30582232 504.2849884 381.67118835 C494.1826575 375.69338821 484.11754066 369.66088766 474.0974884 363.54618835 C464.71649768 357.82192376 455.27852406 352.20673142 445.7849884 346.67118835 C435.70917358 340.79612675 425.70345757 334.81910642 415.74739075 328.74345398 C406.30187326 322.98080954 396.80727532 317.30599764 387.2849884 311.67118835 C377.14327357 305.66916311 367.03538133 299.6169682 356.9724884 293.48368835 C344.66652394 285.98537621 332.28433678 278.62075584 319.876297 271.29277039 C313.3631368 267.44574786 306.8538874 263.59213427 300.3474884 259.73368835 C299.67254333 259.33345459 298.99759827 258.93322083 298.30220032 258.52085876 C288.35519947 252.61926472 278.45165778 246.65001101 268.57627869 240.62947083 C258.51266771 234.49599138 248.38952975 228.46709236 238.24699402 222.4651947 C228.82486753 216.8881329 219.4436084 211.24962303 210.0974884 205.54618835 C200.71649768 199.82192376 191.27852406 194.20673142 181.7849884 188.67118835 C171.70917358 182.79612675 161.70345757 176.81910642 151.74739075 170.74345398 C142.30187591 164.98081116 132.80737715 159.30582232 123.2849884 153.67118835 C113.76198407 148.03619013 104.26696352 142.36072668 94.82093811 136.59754944 C68.30055196 120.41924042 41.47653117 104.97074125 13.88899231 90.66996765 C6.38652149 86.77272037 -1.03592771 82.74167221 -8.44548035 78.67118835 C-15.94663693 74.56213824 -23.52034287 70.60392346 -31.11393738 66.66899109 C-37.65208864 63.27178139 -44.13351508 59.78336393 -50.5900116 56.23368835 C-58.40980553 51.93561456 -66.28733701 47.76676728 -74.2150116 43.67118835 C-82.59578908 39.33961665 -90.93139322 34.93605991 -99.2150116 30.42118835 C-100.15924988 29.90749695 -101.10348816 29.39380554 -102.07633972 28.86454773 C-108.58626056 25.29993939 -108.58626056 25.29993939 -109.7150116 24.17118835 C-110.84830151 14.13347765 -106.25029388 7.38877488 -100.4025116 -0.45381165 C-99.19348095 -1.92888171 -97.96363502 -3.38710212 -96.7150116 -4.82881165 C-96.05887878 -5.59193665 -95.40274597 -6.35506165 -94.72673035 -7.14131165 C-66.27653174 -37.93202019 -29.12024847 -17.59639229 0 0 Z M426.0428009 643.6125946 C424.00794068 646.06594495 422.12424844 648.5686151 420.2849884 651.17118835 C419.75260559 651.90466492 419.22022278 652.63814148 418.67170715 653.3938446 C415.14878277 658.70098909 413.00227013 664.29849497 410.9724884 670.29618835 C410.71773743 671.04835632 410.46298645 671.80052429 410.20051575 672.57548523 C404.06136616 691.67506174 407.61891655 711.21899573 416.62483215 728.7844696 C427.39232353 747.96313152 444.20940276 758.76252474 464.80451965 764.9250946 C484.62218448 769.75290733 504.2031546 764.3870821 521.2849884 754.17118835 C524.50377243 752.03749016 527.41937605 749.75562371 530.2849884 747.17118835 C530.87151184 746.67618835 531.45803528 746.18118835 532.06233215 745.67118835 C545.55499638 733.43294416 552.76541922 714.98872752 554.2849884 697.17118835 C555.14819898 678.96155574 549.38068971 660.15132889 537.27693176 646.3547821 C535.01415592 643.88756418 532.66280699 641.52814889 530.2849884 639.17118835 C529.65076965 638.50345398 529.0165509 637.8357196 528.3631134 637.14775085 C516.11020632 625.16592579 497.53935317 619.86310057 480.8474884 619.67118835 C459.65013394 619.91472676 440.54952119 627.81694969 426.0428009 643.6125946 Z " fill="#00F7A4" transform="translate(2037.7150115966797,602.8288116455078)"/>
<path d="M0 0 C12.22816661 0.60553663 24.25532776 2.55164297 36.34790039 4.37280273 C38.71448055 4.72575842 41.08112052 5.07831326 43.44781494 5.43050194 C49.22284717 6.29096474 54.99722985 7.15568738 60.77133954 8.02231747 C67.61592056 9.04938635 74.46128038 10.07122006 81.3066669 11.09290396 C94.53385346 13.0672695 107.760242 15.04693828 120.98628234 17.028966 C132.47225731 18.75021638 143.95852658 20.46948699 155.44506836 22.18695068 C156.9808267 22.41658448 158.51658491 22.64621909 160.05234301 22.87585449 C160.81303197 22.98959705 161.57372092 23.1033396 162.35746106 23.2205289 C163.1183607 23.33430336 163.87926034 23.44807782 164.66321754 23.56529999 C165.80471414 23.73598268 165.80471414 23.73598268 166.96927128 23.91011351 C251.46224885 36.54429062 335.94731708 49.23127386 425.00984257 62.75582975 C443.26098584 65.52764988 461.51447359 68.28293334 479.77113342 71.01822281 C486.43862815 72.01795169 493.10553169 73.02161402 499.77237701 74.02566338 C505.53114472 74.89254034 511.29075146 75.7534569 517.05125046 76.60874939 C520.39368812 77.10663815 523.73514275 77.61088144 527.07633209 78.11707306 C528.55076745 78.33914768 530.02559402 78.55864722 531.50087738 78.77501678 C566.11832279 83.85705057 592.97326238 98.07502255 619 121 C619.75289307 121.65814697 619.75289307 121.65814697 620.52099609 122.32958984 C626.47702863 127.552092 631.98585518 132.87160078 637 139 C637.9257126 140.08990207 638.85150068 141.17974002 639.77734375 142.26953125 C658.06786831 164.11524729 664.98696008 184.72334913 665.25128841 213.107315 C665.26633082 214.35644384 665.28137322 215.60557268 665.29687145 216.89255391 C665.33822548 220.33648035 665.37438757 223.780444 665.40964816 227.22443748 C665.44919043 230.99405337 665.49367993 234.7636116 665.53751624 238.53317955 C665.61387731 245.15758441 665.68711443 251.78201808 665.7583009 258.40648048 C665.86489151 268.32392833 665.97638249 278.24131701 666.08882236 288.15870005 C666.2803396 305.06317596 666.46787758 321.96769391 666.65325546 338.87223816 C666.8411325 356.00305963 667.03085794 373.13385915 667.22284317 390.26463509 C667.24103371 391.88790156 667.24103371 391.88790156 667.25959174 393.54396129 C667.32143847 399.06215492 667.38331646 404.5803482 667.44520643 410.09854134 C667.89317086 450.04463011 668.3371396 489.99076247 668.77908325 529.93691826 C669.21705723 569.52252051 669.65702766 609.10809984 670.09957886 648.6936512 C670.12020233 650.53846744 670.12020233 650.53846744 670.14124244 652.4205527 C670.28084764 664.90823545 670.42049708 677.39591771 670.56017621 689.88359964 C670.85854968 716.55898158 671.15665042 743.23436657 671.45463562 769.90975285 C671.46884444 771.18168455 671.48305325 772.45361625 671.49769264 773.76409133 C672.1814908 834.97723213 672.86253025 896.19040357 673.54310135 957.40358032 C673.5803245 960.75155407 673.61754865 964.09952781 673.65477274 967.44750154 C673.80394827 980.86453016 673.9531194 994.28155882 674.10228795 1007.69858751 C674.10968235 1008.36367929 674.11707675 1009.02877107 674.12469522 1009.71401714 C674.20691085 1017.10893271 674.28912536 1024.50384828 674.37133781 1031.89876388 C675.0436424 1092.37164321 675.71657902 1152.8445155 676.38990537 1213.31738346 C676.42711941 1216.65965954 676.46433245 1220.00193563 676.50154521 1223.34421172 C677.18192865 1284.45295733 677.86289861 1345.56169635 678.54536438 1406.67041874 C678.56666141 1408.57742028 678.56666141 1408.57742028 678.58838868 1410.52294711 C678.87210872 1435.92801159 679.15588962 1461.33307539 679.43982379 1486.73813748 C679.59339497 1500.47907611 679.74692875 1514.22001516 679.90042114 1527.96095467 C679.9210188 1529.80487018 679.9210188 1529.80487018 679.94203257 1531.68603652 C680.39743686 1572.45636212 680.85044945 1613.22671393 681.30227605 1653.99707933 C681.73042642 1692.63043969 682.16025521 1731.26378102 682.59216077 1769.89709959 C682.65384552 1775.41484563 682.71550818 1780.93259192 682.77715683 1786.45033836 C682.78924129 1787.53188564 682.80132575 1788.61343292 682.8137764 1789.72775436 C683.00442698 1806.79567791 683.19317308 1823.86362196 683.38110222 1840.93157568 C683.56631088 1857.7490394 683.75354812 1874.56647955 683.94288336 1891.38389733 C684.04394751 1900.36573961 684.14414053 1909.34758934 684.2416991 1918.32947045 C684.76377806 1966.93066747 684.76377806 1966.93066747 685.90470397 2015.52059937 C686.8012225 2048.25383353 685.64562557 2087.63120314 661.9453125 2113.19140625 C658.27544594 2116.60335046 654.24455664 2119.35474372 650 2122 C649.36449219 2122.4021875 648.72898437 2122.804375 648.07421875 2123.21875 C639.37045844 2128.13907703 629.1502793 2129.25514329 619.3125 2129.3125 C618.64871338 2129.31797852 617.98492676 2129.32345703 617.30102539 2129.32910156 C607.05643099 2129.18405421 599.09883724 2127.20715187 590.6953125 2121.28515625 C588.94705485 2120.10155576 587.19867807 2118.91813121 585.45019531 2117.73486328 C584.55498169 2117.11943665 583.65976807 2116.50401001 582.73742676 2115.86993408 C578.21967121 2112.78385879 573.63272662 2109.80413895 569.0546875 2106.80859375 C567.19606559 2105.58481775 565.33799515 2104.36020382 563.48046875 2103.13476562 C559.73628406 2100.66509279 555.99151841 2098.19630758 552.24609375 2095.72851562 C543.82348523 2090.17673737 535.40836172 2084.61442744 527.01953125 2079.01171875 C516.64848827 2072.08533248 506.22987496 2065.23141988 495.8125 2058.375 C474.54182022 2044.3742294 474.54182022 2044.3742294 466.51171875 2039.0078125 C456.70728427 2032.45563424 446.8496607 2025.98388903 437 2019.5 C415.55467577 2005.38285356 415.55467577 2005.38285356 405.74462891 1998.8269043 C396.52643165 1992.67270302 387.25784293 1986.59430396 378 1980.5 C356.55467577 1966.38285356 356.55467577 1966.38285356 346.74462891 1959.8269043 C337.52643165 1953.67270302 328.25784293 1947.59430396 319 1941.5 C297.55467577 1927.38285356 297.55467577 1927.38285356 287.74462891 1920.8269043 C278.52643165 1914.67270302 269.25784293 1908.59430396 260 1902.5 C238.55467577 1888.38285356 238.55467577 1888.38285356 228.74462891 1881.8269043 C219.52643165 1875.67270302 210.25784293 1869.59430396 201 1863.5 C179.55467577 1849.38285356 179.55467577 1849.38285356 169.74462891 1842.8269043 C160.52643165 1836.67270302 151.25784293 1830.59430396 142 1824.5 C120.26156157 1810.18990072 120.26156157 1810.18990072 110.69010925 1803.78831482 C106.29838202 1800.8550428 101.88703618 1797.95253896 97.47024536 1795.05715942 C93.83710243 1792.67336738 90.20989998 1790.2806213 86.58325195 1787.88696289 C84.73315598 1786.66872629 82.88060175 1785.45421495 81.02563477 1784.2434082 C70.20934677 1777.17821384 60.17434158 1770.12717025 51 1761 C49.52210462 1759.62363367 48.04315889 1758.24839298 46.5625 1756.875 C0.7377274 1710.30172839 -10.74170279 1641.17024896 -10.25887208 1578.63673854 C-10.23608214 1575.33362644 -10.22534393 1572.0305115 -10.21443393 1568.72734195 C-10.1772897 1557.49379166 -10.10221924 1546.26061762 -10.02138454 1535.02731037 C-9.99247962 1530.93537406 -9.96578772 1526.84342453 -9.93912802 1522.75147307 C-9.73940892 1492.13305271 -9.48482446 1461.51514903 -9.22268705 1430.89721024 C-9.00014955 1404.83763316 -8.79224002 1378.77793235 -8.58371113 1352.71824008 C-8.56587993 1350.49134302 -8.54801648 1348.26444622 -8.53014316 1346.0375495 C-7.96523123 1275.63878653 -7.49565108 1205.23948897 -7.04997412 1134.83988192 C-7.03017366 1131.71320116 -7.0103453 1128.58652058 -6.9905178 1125.45983999 C-6.74556597 1086.82904946 -6.50416165 1048.19823719 -6.26468415 1009.56741237 C-6.11755657 985.83447735 -5.96944149 962.10154868 -5.82060804 938.36862431 C-5.27754878 851.76799422 -4.738726 765.16733783 -3.12252801 493.15722479 C-3.10938942 490.88530639 -3.09624699 488.61338801 -3.08310327 486.34146965 C-2.72311364 424.11549662 -2.36673929 361.88950409 -2.0173141 299.66347082 C-1.89022633 277.03721491 -1.76230967 254.4109637 -1.63368449 231.78471649 C-1.62012102 229.39858723 -1.60656428 227.01245793 -1.59301439 224.62632859 C-1.16777432 149.74993504 -0.67800723 74.87457561 0 0 Z " fill="#00EB9D" transform="translate(1170,1360)"/>
<path d="M0 0 C3.77920401 1.77402465 6.37817759 4.01077685 9.4375 6.875 C9.96045654 7.36186279 10.48341309 7.84872559 11.0222168 8.3503418 C12.1286904 9.38047284 13.23355845 10.4123308 14.33691406 11.44580078 C16.45521778 13.42541345 18.5889599 15.38788458 20.72314453 17.3503418 C26.02646943 22.22923777 31.29840234 27.14134903 36.5625 32.0625 C42.03016801 37.17359611 47.52772129 42.24965164 53.05078125 47.30078125 C61.575565 55.10293432 70.04222008 62.966465 78.48364258 70.85864258 C83.26290959 75.32269837 88.07892601 79.74417969 92.90625 84.15625 C96.45977503 87.41364794 99.97942534 90.70707554 103.5 94 C108.98806767 99.13247534 114.50595224 104.22974271 120.05078125 109.30078125 C128.575565 117.10293432 137.04222008 124.966465 145.48364258 132.85864258 C150.26290959 137.32269837 155.07892601 141.74417969 159.90625 146.15625 C163.45977503 149.41364794 166.97942534 152.70707554 170.5 156 C175.98806767 161.13247534 181.50595224 166.22974271 187.05078125 171.30078125 C194.9287746 178.51097119 202.76120177 185.7694426 210.5625 193.0625 C216.03016801 198.17359611 221.52772129 203.24965164 227.05078125 208.30078125 C235.575565 216.10293432 244.04222008 223.966465 252.48364258 231.85864258 C257.26290959 236.32269837 262.07892601 240.74417969 266.90625 245.15625 C270.45977503 248.41364794 273.97942534 251.70707554 277.5 255 C282.98806767 260.13247534 288.50595224 265.22974271 294.05078125 270.30078125 C302.575565 278.10293432 311.04222008 285.966465 319.48364258 293.85864258 C324.26290959 298.32269837 329.07892601 302.74417969 333.90625 307.15625 C337.45977503 310.41364794 340.97942534 313.70707554 344.5 317 C349.98806767 322.13247534 355.50595224 327.22974271 361.05078125 332.30078125 C368.9287746 339.51097119 376.76120177 346.7694426 384.5625 354.0625 C390.03016801 359.17359611 395.52772129 364.24965164 401.05078125 369.30078125 C409.575565 377.10293432 418.04222008 384.966465 426.48364258 392.85864258 C431.26290959 397.32269837 436.07892601 401.74417969 440.90625 406.15625 C444.45977503 409.41364794 447.97942534 412.70707554 451.5 416 C456.98806767 421.13247534 462.50595224 426.22974271 468.05078125 431.30078125 C476.575565 439.10293432 485.04222008 446.966465 493.48364258 454.85864258 C498.26290959 459.32269837 503.07892601 463.74417969 507.90625 468.15625 C511.45977503 471.41364794 514.97942534 474.70707554 518.5 478 C523.98806767 483.13247534 529.50595224 488.22974271 535.05078125 493.30078125 C542.9287746 500.51097119 550.76120177 507.7694426 558.5625 515.0625 C564.03016801 520.17359611 569.52772129 525.24965164 575.05078125 530.30078125 C583.575565 538.10293432 592.04222008 545.966465 600.48364258 553.85864258 C605.26290959 558.32269837 610.07892601 562.74417969 614.90625 567.15625 C618.45977503 570.41364794 621.97942534 573.70707554 625.5 577 C630.98806767 582.13247534 636.50595224 587.22974271 642.05078125 592.30078125 C649.9287746 599.51097119 657.76120177 606.7694426 665.5625 614.0625 C671.03016801 619.17359611 676.52772129 624.24965164 682.05078125 629.30078125 C685.14389906 632.13170099 688.2303622 634.96963834 691.3125 637.8125 C691.84617187 638.30419678 692.37984375 638.79589355 692.9296875 639.30249023 C695.89216499 642.03671271 698.8388228 644.78642189 701.76953125 647.5546875 C709.88360285 655.2149602 709.88360285 655.2149602 718.4375 662.375 C741.63800974 681.05951156 765.46969551 709.07048725 769.47265625 739.60546875 C770.5105538 751.30865833 769.55453219 761.55970873 764 772 C763.62488281 772.76570313 763.24976562 773.53140625 762.86328125 774.3203125 C757.57831928 784.19192315 746.77854476 796.61050255 736.08451557 800.73959064 C733.99919331 801.31132088 731.91514175 801.78229798 729.79736328 802.21875 C728.99597522 802.39789538 728.19458715 802.57704077 727.3689146 802.7616148 C724.68920864 803.35661051 722.00503272 803.92809233 719.3203125 804.5 C717.37757301 804.92678373 715.43517346 805.35511728 713.49308777 805.78486633 C709.27696578 806.71468808 705.05879702 807.63433578 700.83877563 808.54629517 C693.99320979 810.02604112 687.15284064 811.52887686 680.31323242 813.03588867 C672.96486329 814.65421063 665.61630189 816.27159738 658.26622009 817.88212585 C640.01265248 821.8833297 621.77363983 825.94668736 603.54296875 830.05078125 C602.88563389 830.19874641 602.22829904 830.34671157 601.55104494 830.49916053 C594.181361 832.15818667 586.81204159 833.81882795 579.44287109 835.48013306 C567.12960131 838.25595669 554.81473706 841.02469495 542.49995804 843.79381371 C539.75909542 844.41013062 537.01824825 845.02651615 534.27741623 845.64296913 C505.06312834 852.21368642 475.84465603 858.76569699 446.625 865.3125 C444.224192 865.85043202 441.8233843 866.38836537 439.4225769 866.92630005 C429.93550948 869.05198813 420.44842703 871.17760912 410.96131897 873.30311584 C386.8805807 878.69832265 362.80090756 884.0982757 338.72149277 889.49938583 C335.38803711 890.24707579 332.05457029 890.99471602 328.72109985 891.74234009 C304.83264418 897.10002769 280.94487389 902.46074597 257.05859375 907.828125 C219.91483532 916.17415522 182.77058376 924.51779355 145.60967636 932.78720093 C143.27505786 933.30692175 140.94056633 933.82720926 138.60610962 934.34765625 C135.02403159 935.14613762 131.44159361 935.9429823 127.85884285 936.73843956 C125.95771045 937.16087474 124.05690536 937.58478213 122.15611267 938.00874329 C121.02726151 938.25891708 119.89841034 938.50909088 118.73535156 938.7668457 C117.76519104 938.98250687 116.79503052 939.19816803 115.79547119 939.42036438 C110.22323119 940.57575772 104.89424734 941.16721535 99.20703125 941.203125 C98.46764313 941.21013931 97.728255 941.21715363 96.96646118 941.22438049 C94.58174534 941.24185614 92.1972776 941.24823644 89.8125 941.25 C88.59290085 941.25101212 88.59290085 941.25101212 87.34866333 941.25204468 C75.31045059 941.2361394 63.75736992 940.79361269 52 938 C50.8852832 937.75056641 50.8852832 937.75056641 49.74804688 937.49609375 C8.32826366 928.10621846 -27.94314374 906.83846346 -59.875 879.3125 C-60.48158447 878.78994629 -61.08816895 878.26739258 -61.71313477 877.72900391 C-65.32775526 874.57321749 -68.73765514 871.27810811 -72.10266113 867.85894775 C-73.89341188 866.10443139 -75.73725829 864.47392874 -77.64550781 862.84912109 C-82.38229186 858.72722926 -86.8021312 854.32343686 -91.2265625 849.87109375 C-92.11220886 848.98398712 -92.99785522 848.09688049 -93.91033936 847.18289185 C-95.821136 845.26830796 -97.73100903 843.35285475 -99.63934326 841.43582153 C-102.66382676 838.39769493 -105.69222887 835.36349417 -108.72119141 832.32983398 C-115.69591819 825.34311903 -122.66559769 818.35137627 -129.63522339 811.35957336 C-136.02860535 804.94595275 -142.42307701 798.53342841 -148.82162285 792.12495899 C-151.82562495 789.11600842 -154.82718009 786.10464534 -157.82681274 783.09133911 C-160.14034571 780.76852368 -162.45716923 778.44899361 -164.7734375 776.12890625 C-165.59237488 775.30480255 -166.41131226 774.48069885 -167.25506592 773.63162231 C-171.37823673 769.50807574 -175.58514097 765.57553698 -180.00294495 761.77120972 C-183.74672226 758.45081314 -187.24218455 754.87905846 -190.76757812 751.33007812 C-191.60445663 750.49173935 -192.44133514 749.65340057 -193.30357361 748.78965759 C-195.10795689 746.98148901 -196.9111847 745.17216677 -198.71336365 743.36180115 C-201.57022718 740.49209764 -204.43019655 737.62552426 -207.2911377 734.7598877 C-213.87884083 728.16020138 -220.46149346 721.55548521 -227.04409027 714.95070648 C-233.08290197 708.89165046 -239.12280678 702.83369453 -245.16678762 696.77979422 C-248.45880348 693.48203943 -251.74688979 690.1803973 -255.03430176 686.87805176 C-256.76685929 685.14185959 -258.49955856 683.40580885 -260.23242188 681.66992188 C-261.00460556 680.89257187 -261.77678925 680.11522186 -262.57237244 679.3143158 C-266.59311603 675.2931847 -270.70845305 671.47127318 -275.01480865 667.75934601 C-278.59431659 664.58706087 -281.93972604 661.1819224 -285.30859375 657.7890625 C-286.09670441 656.99949158 -286.88481506 656.20992065 -287.69680786 655.39642334 C-289.39478768 653.69466035 -291.09161209 651.99174387 -292.78738403 650.28778076 C-295.47621768 647.58609729 -298.16823814 644.88762547 -300.86108398 642.18994141 C-307.0615766 635.9770962 -313.25738918 629.75959479 -319.45295715 623.5418396 C-325.59068199 617.38224846 -331.73041842 611.22468022 -337.87356567 605.07049561 C-340.51665546 602.42095641 -343.15669826 599.76840705 -345.79663086 597.11572266 C-347.42807333 595.48064527 -349.05965771 593.84570945 -350.69140625 592.2109375 C-351.41683624 591.48034119 -352.14226624 590.74974487 -352.88967896 589.99700928 C-356.80787691 586.07841066 -360.83177651 582.36677335 -365.02667236 578.7474823 C-368.44180953 575.7232041 -371.63730257 572.48480688 -374.84960938 569.24804688 C-375.58895218 568.5072438 -376.32829498 567.76644073 -377.09004211 567.00318909 C-378.68161864 565.40783183 -380.27203981 563.81132125 -381.86140442 562.21376038 C-384.38220791 559.68009588 -386.90620715 557.14965365 -389.43103027 554.61999512 C-395.69851119 548.3392036 -401.96052157 542.052967 -408.22271729 535.76690674 C-413.52433853 530.44550288 -418.82803762 525.12618628 -424.13447571 519.80958557 C-426.61137487 517.32624189 -429.08522341 514.83988703 -431.55895996 512.35339355 C-433.08928735 510.81943092 -434.61975685 509.28561004 -436.15039062 507.75195312 C-436.82906693 507.0681105 -437.50774323 506.38426788 -438.20698547 505.67970276 C-442.01526009 501.87101341 -445.9406301 498.27775475 -450.01613617 494.75801849 C-453.40173135 491.75784336 -456.57247916 488.54976371 -459.7578125 485.33984375 C-460.48740173 484.60879425 -461.21699097 483.87774475 -461.96868896 483.12454224 C-463.53898485 481.55046614 -465.1081254 479.97523677 -466.6762085 478.3989563 C-469.16340587 475.8988955 -471.65380092 473.40205928 -474.14501953 470.90600586 C-480.32902554 464.70869074 -486.50755998 458.50592986 -492.6862793 452.30334473 C-497.91743969 447.05240003 -503.15067907 441.80354389 -508.38665771 436.55740356 C-510.8303188 434.10729902 -513.27092848 431.65418307 -515.71142578 429.20092773 C-517.22153015 427.68718805 -518.73177667 426.17359015 -520.2421875 424.66015625 C-521.24617584 423.64841843 -521.24617584 423.64841843 -522.27044678 422.61624146 C-526.09021396 418.79605281 -530.02894235 415.18667827 -534.11708069 411.6560955 C-536.87195197 409.23308676 -539.46485628 406.66744155 -542.04882812 404.06469727 C-542.59619629 403.51747513 -543.14356445 402.97025299 -543.70751953 402.40644836 C-545.48448225 400.62879879 -547.25789403 398.84765322 -549.03125 397.06640625 C-550.27513013 395.82065756 -551.51923381 394.57513205 -552.7635498 393.32981873 C-556.01419015 390.07538764 -559.26181428 386.81796319 -562.50878906 383.55987549 C-565.83214452 380.22623132 -569.1583858 376.89546923 -572.484375 373.56445312 C-578.99238809 367.04576354 -585.49721383 360.52390347 -592 354 C-588.80636355 354 -587.26811355 354.61672522 -584.375 355.875 C-563.52230936 364.323935 -541.09907118 359.40429912 -521 351 C-515.5302063 348.58987215 -510.24407234 345.86407028 -505 343 C-503.96359375 342.43539062 -503.96359375 342.43539062 -502.90625 341.859375 C-494.29079968 337.10820755 -486.28410047 331.89497407 -478.50292969 325.87939453 C-472.59759936 321.34988356 -466.46063663 317.22292165 -460.25 313.125 C-452.57156396 308.05839195 -444.9548048 302.92811949 -437.4375 297.625 C-431.36010223 293.34075775 -425.25248384 289.12309258 -419.05004883 285.0222168 C-413.04099063 281.04392065 -407.08219297 276.99294739 -401.125 272.9375 C-399.52072144 271.84538208 -399.52072144 271.84538208 -397.8840332 270.73120117 C-395.68461642 269.23356929 -393.48531043 267.73577589 -391.28613281 266.23779297 C-386.02598753 262.65573564 -380.76289139 259.07802081 -375.5 255.5 C-373.41665152 254.08335561 -371.33331821 252.66668891 -369.25 251.25 C-356.75 242.75 -356.75 242.75 -353.62426758 240.62451172 C-351.54336354 239.20949047 -349.46247159 237.79445144 -347.3815918 236.37939453 C-342.13618983 232.81240626 -336.89057051 229.24573843 -331.64453125 225.6796875 C-321.7587828 218.95932648 -311.8751631 212.23590825 -302 205.5 C-291.0652839 198.04136426 -280.11999198 190.59832967 -269.17333984 183.15722656 C-263.94849968 179.60539646 -258.72427829 176.05265648 -253.5 172.5 C-251.41666969 171.08332888 -249.33333636 169.66666222 -247.25 168.25 C-246.21875 167.54875 -245.1875 166.8475 -244.125 166.125 C-184.75000003 125.75000002 -184.75000003 125.75000002 -181.62426758 123.62451172 C-179.54336354 122.20949047 -177.46247159 120.79445144 -175.3815918 119.37939453 C-170.13618983 115.81240626 -164.89057051 112.24573843 -159.64453125 108.6796875 C-149.7587828 101.95932648 -139.8751631 95.23590825 -130 88.5 C-119.0652839 81.04136426 -108.11999198 73.59832967 -97.17333984 66.15722656 C-91.94849968 62.60539646 -86.72427829 59.05265648 -81.5 55.5 C-79.41666969 54.08332888 -77.33333636 52.66666222 -75.25 51.25 C-74.21875 50.54875 -73.1875 49.8475 -72.125 49.125 C-62.75000001 42.75000001 -62.75000001 42.75000001 -59.62353516 40.62402344 C-57.54506041 39.21064761 -55.46660979 37.79723629 -53.38818359 36.38378906 C-48.10571366 32.79147764 -42.82279548 29.19982847 -37.5390625 25.609375 C-25.01082968 17.0950328 -12.49487204 8.56323173 0 0 Z " fill="#00EB9C" transform="translate(2545,2368)"/>
<path d="M0 0 C1.75187135 1.07151155 3.50453323 2.14173124 5.2578125 3.2109375 C6.22235352 3.80100586 7.18689453 4.39107422 8.18066406 4.99902344 C13.69916103 8.34791261 19.26143938 11.62286543 24.81790161 14.90823364 C36.35469522 21.7322059 47.84197856 28.63123799 59.28393555 35.61288452 C68.09255989 40.98401597 76.96250247 46.24075185 85.875 51.4375 C95.3685401 56.97304565 104.80639439 62.58841866 114.1875 68.3125 C124.27187684 74.46545494 134.39850447 80.54193066 144.5625 86.5625 C145.24059723 86.96418396 145.91869446 87.36586792 146.61734009 87.77972412 C147.29251678 88.1796759 147.96769348 88.57962769 148.66333008 88.99169922 C150.00864993 89.78869709 151.35394639 90.58573446 152.69921875 91.3828125 C153.35604141 91.77197845 154.01286407 92.16114441 154.68959045 92.56210327 C161.76751924 96.75855796 168.81935931 100.99816599 175.87060547 105.23925781 C183.6071304 109.88786677 191.36743948 114.4953285 199.13293457 119.09527588 C215.18806046 128.60711046 231.15069552 138.26429234 247.08349609 147.97924805 C251.09611141 150.42567118 255.10978024 152.87035355 259.125 155.3125 C259.69641724 155.66008362 260.26783447 156.00766724 260.85656738 156.36578369 C270.9981353 162.53056641 281.19666676 168.59678136 291.40988159 174.64193726 C300.87238056 180.24386289 310.2977572 185.90200158 319.6875 191.625 C331.99346446 199.12331215 344.37565162 206.48793252 356.78369141 213.81591797 C363.2968516 217.66294049 369.80610101 221.51655409 376.3125 225.375 C376.98744507 225.77523376 377.66239014 226.17546753 378.35778809 226.58782959 C388.30478893 232.48942364 398.20833062 238.45867735 408.08370972 244.47921753 C418.1473207 250.61269698 428.27045865 256.641596 438.41299438 262.64349365 C447.83511454 268.2205517 457.21663097 273.85866018 466.5625 279.5625 C477.47386096 286.22078302 488.46610047 292.72821578 499.5222168 299.14306641 C502.81558835 301.05959466 506.09813444 302.99290309 509.375 304.9375 C510.43299805 305.55898926 511.49099609 306.18047852 512.58105469 306.82080078 C513.57137695 307.42134277 514.56169922 308.02188477 515.58203125 308.640625 C516.89457886 309.42808105 516.89457886 309.42808105 518.23364258 310.23144531 C521.81943807 313.08830758 522.64831372 316.56192089 523.375 320.9375 C523.55160156 321.72511719 523.72820313 322.51273438 523.91015625 323.32421875 C525.89796761 334.49939356 524.05306491 343.77784124 517.75 353.125 C510.74395157 361.81250005 500.17147108 366.88848784 489.54541016 369.68115234 C485.5745584 370.00222075 484.12458254 369.10567636 480.7890625 366.984375 C479.71011719 366.31212891 478.63117187 365.63988281 477.51953125 364.94726562 C476.94799316 364.58028564 476.37645508 364.21330566 475.78759766 363.83520508 C473.32882504 362.25658037 470.84730368 360.71534892 468.36712646 359.1706543 C467.05261073 358.35119244 465.73935805 357.52970137 464.42730713 356.70629883 C457.81683561 352.56222326 451.11112143 348.58628334 444.38983154 344.62536621 C433.09620976 337.96708663 421.85958705 331.22038822 410.66601562 324.39550781 C401.27657441 318.67298064 391.83761639 313.03810119 382.375 307.4375 C371.76369902 301.15703143 361.19400773 294.814575 350.66601562 288.39550781 C341.27657441 282.67298064 331.83761639 277.03810119 322.375 271.4375 C311.76369902 265.15703143 301.19400773 258.814575 290.66601562 252.39550781 C281.27657441 246.67298064 271.83761639 241.03810119 262.375 235.4375 C251.76369902 229.15703143 241.19400773 222.814575 230.66601562 216.39550781 C221.27657441 210.67298064 211.83761639 205.03810119 202.375 199.4375 C191.76369902 193.15703143 181.19400773 186.814575 170.66601562 180.39550781 C161.27657441 174.67298064 151.83761639 169.03810119 142.375 163.4375 C131.76369902 157.15703143 121.19400773 150.814575 110.66601562 144.39550781 C101.27657441 138.67298064 91.83761639 133.03810119 82.375 127.4375 C71.76369902 121.15703143 61.19400773 114.814575 50.66601562 108.39550781 C41.27656774 102.67297658 31.8373574 97.03854748 22.375 91.4375 C8.6354216 83.3022996 -5.04519471 75.07607261 -18.66552734 66.74267578 C-21.32906286 65.1180114 -24.00057517 63.50768441 -26.67578125 61.90234375 C-38.76233835 54.60090823 -47.08640239 47.7502364 -51 33.625 C-53.05636051 22.43365339 -50.22961832 12.40095354 -44.8125 2.6875 C-31.60752559 -13.91303926 -16.2065365 -10.1046147 0 0 Z " fill="#00DD94" transform="translate(1763.625,680.0625)"/>
<path d="M0 0 C8.98270584 0.28445235 18.09131844 7.78859382 25.5 12.3125 C34.48305701 17.75305698 43.51605058 23.08502047 52.625 28.3125 C60.37564758 32.76306496 68.08748127 37.2562672 75.734375 41.8828125 C81.81057026 45.54017928 87.9418549 49.10523095 94.0625 52.6875 C107.26509027 60.41606116 120.44188445 68.18728547 133.60644531 75.98046875 C145.5150728 83.02888487 157.44133482 90.04655756 169.38235474 97.03991699 C178.14161435 102.17016354 186.88897102 107.3200028 195.62426758 112.4909668 C203.13262332 116.93242324 210.6591238 121.34261467 218.1875 125.75 C228.73991742 131.92797082 239.27125085 138.13993523 249.78198242 144.38867188 C255.8490703 147.99180199 261.93023115 151.56800362 268.03125 155.11328125 C269.3743753 155.89513704 270.7174745 156.67703768 272.06054688 157.45898438 C274.63706721 158.95886351 277.21697795 160.45267832 279.79882812 161.94335938 C280.97018689 162.62476832 282.1414176 163.30639744 283.3125 163.98828125 C284.33988281 164.58294189 285.36726563 165.17760254 286.42578125 165.7902832 C291.63645145 169.12453888 292.78967451 172.20191843 294.1875 178.125 C294.45336914 179.14883789 294.45336914 179.14883789 294.72460938 180.19335938 C297.0753456 189.80505692 296.04381353 198.35799416 292 207.4375 C283.29975303 220.35497463 270.06264017 225.26757875 255.6328125 229.40234375 C250.32289305 229.45373007 247.36723183 227.10329477 243.0625 224.1875 C241.19243546 222.97556179 239.31987247 221.76747325 237.4453125 220.5625 C236.42083008 219.89992188 235.39634766 219.23734375 234.34082031 218.5546875 C228.79768233 215.041819 223.1410573 211.72366889 217.48641968 208.39434814 C214.03289506 206.36016407 210.58457519 204.31721025 207.13671875 202.2734375 C206.45194962 201.86757416 205.76718048 201.46171082 205.06166077 201.04354858 C198.26471224 197.00989521 191.5020883 192.92070046 184.75 188.8125 C184.17889496 188.4651178 183.60778992 188.1177356 183.01937866 187.75982666 C178.44166942 184.97467324 173.86651023 182.18534212 169.29150391 179.39575195 C165.27888857 176.94932881 161.26519649 174.50468472 157.25 172.0625 C156.68190613 171.7169104 156.11381226 171.3713208 155.52850342 171.01525879 C145.15965654 164.71175657 134.73085823 158.51152834 124.2902832 152.32775879 C114.62610224 146.60306189 105.00500316 140.81596813 95.43652344 134.93261719 C90.25731668 131.75451477 85.06700652 128.59463503 79.875 125.4375 C79.29051086 125.08194031 78.70602173 124.72638062 78.1038208 124.36004639 C70.95222355 120.01235456 63.78012041 115.70123435 56.578125 111.4375 C55.5191954 110.81041138 55.5191954 110.81041138 54.43887329 110.1706543 C51.02417927 108.14969796 47.60726965 106.13261879 44.18701172 104.12109375 C37.84402309 100.38233085 31.54474025 96.58271577 25.328125 92.63671875 C24.21598633 91.93119873 23.10384766 91.22567871 21.95800781 90.4987793 C3.42371575 77.5832108 -3.28978343 51.47259247 -7.58984375 30.5703125 C-8.14230265 26.35057884 -8.22355054 22.1892513 -8.25 17.9375 C-8.270625 17.10863281 -8.29125 16.27976562 -8.3125 15.42578125 C-8.34495059 10.32292582 -7.81579779 6.86623051 -5 2.4375 C-3 0.4375 -3 0.4375 0 0 Z " fill="#00DD94" transform="translate(1748,916.5625)"/>
</svg>
