<?xml version="1.0" encoding="UTF-8"?>
<svg version="1.1" xmlns="http://www.w3.org/2000/svg" width="1266" height="1266">
<path d="M0 0 C6.84483316 0.17326965 11.96996574 4.06480299 17.58984375 7.62890625 C18.77828661 8.36151617 19.96817682 9.09178282 21.15942383 9.81982422 C23.00009422 10.94524026 24.83971311 12.07207579 26.67497253 13.20629883 C32.81955817 17.00273705 39.07002234 20.60614545 45.33984375 24.19140625 C47.50426798 25.43556884 49.66833284 26.68035684 51.83203125 27.92578125 C52.88616211 28.53228516 53.94029297 29.13878906 55.02636719 29.76367188 C63.00225979 34.36332753 70.94806084 39.01466564 78.89501953 43.6640625 C81.84118785 45.38468486 84.7901135 47.10042836 87.74028015 48.81417847 C90.32935453 50.31900755 92.91656625 51.82702118 95.50350952 53.33551025 C96.7439795 54.05796973 97.9851804 54.77917606 99.22720337 55.4989624 C118.93773857 66.92521268 137.05773296 78.21358844 145.15234375 100.56640625 C147.30197355 109.46141551 147.45943204 118.3583773 147.453125 127.46484375 C147.45702703 128.87147138 147.4613647 130.27809786 147.46611023 131.6847229 C147.47351323 134.61439861 147.47332467 137.54395369 147.46801758 140.47363281 C147.46223003 144.18710603 147.47916545 147.90007931 147.50236225 151.61347008 C147.51725081 154.51352721 147.51795104 157.41346808 147.51485252 160.31355667 C147.51560009 162.33498595 147.52934284 164.35639749 147.54353333 166.3777771 C147.47891035 179.4663069 145.94160542 195.48658468 136.97802734 205.84326172 C132.61768274 209.95870865 127.39414483 213.08486824 122.40234375 216.37890625 C121.15897477 217.20855648 119.91622544 218.03913604 118.67407227 218.87060547 C116.75941626 220.15175155 114.84419484 221.4319808 112.92652893 222.70861816 C108.54595775 225.62538487 104.19085839 228.57690495 99.8515625 231.5546875 C99.27614716 231.94902481 98.70073181 232.34336212 98.10787964 232.74964905 C95.36520667 234.62951393 92.62436049 236.51193141 89.88574219 238.39770508 C88.42249512 239.3977356 88.42249512 239.3977356 86.9296875 240.41796875 C86.07624756 241.00400879 85.22280762 241.59004883 84.34350586 242.19384766 C82.15234375 243.56640625 82.15234375 243.56640625 79.15234375 244.56640625 C79.15234375 245.22640625 79.15234375 245.88640625 79.15234375 246.56640625 C79.7246875 246.81003906 80.29703125 247.05367187 80.88671875 247.3046875 C83.55667913 248.79157923 85.29063382 250.54724533 87.40234375 252.75390625 C90.79712697 256.29117125 94.35899615 259.52301161 98.06005859 262.73022461 C101.39584105 265.65769484 104.61461855 268.70578065 107.83984375 271.75390625 C109.24572545 273.07721431 110.65198036 274.40012597 112.05859375 275.72265625 C112.74953125 276.37234375 113.44046875 277.02203125 114.15234375 277.69140625 C118.60018151 281.86125415 123.08951372 285.98624034 127.57568359 290.11474609 C130.27045315 292.59587025 132.96118768 295.08136416 135.65234375 297.56640625 C138.87762127 300.5443658 142.10339541 303.52177508 145.33203125 306.49609375 C151.83076007 312.48535248 158.30473626 318.49985257 164.75048828 324.54614258 C169.15112091 328.66418161 173.62662769 332.67442222 178.19921875 336.6015625 C181.41502109 339.83665966 183.58059629 342.97743218 183.58984375 347.62890625 C183.15234375 351.56640625 183.15234375 351.56640625 181.63212585 353.67510986 C178.34417546 356.18278531 175.00253241 356.91994911 171.03833008 357.76464844 C169.81555862 358.04350136 169.81555862 358.04350136 168.56808472 358.32798767 C165.87656393 358.93770272 163.18085309 359.52591188 160.484375 360.11328125 C158.6057045 360.53253265 156.72726399 360.95281586 154.8490448 361.37408447 C150.91104517 362.25398496 146.97097456 363.12368492 143.02905273 363.98583984 C137.99293738 365.08780714 132.96189666 366.21114417 127.93214893 367.3417778 C124.05172163 368.21219693 120.16920291 369.07296095 116.28595543 369.93070221 C114.43117116 370.34122508 112.57694332 370.75427081 110.72330666 371.16994476 C108.12196449 371.75137854 105.51816404 372.32018614 102.91333008 372.88574219 C102.15715897 373.05712204 101.40098785 373.22850189 100.62190247 373.40507507 C92.03503233 375.23819549 84.19369063 375.33664497 76.15234375 371.56640625 C69.67597428 367.1833619 64.13869929 361.81555168 58.6796875 356.25390625 C57.9123378 355.48135498 57.1449881 354.70880371 56.35438538 353.9128418 C53.92799068 351.4688094 51.50845341 349.01814092 49.08984375 346.56640625 C46.66679512 344.11556205 44.242222 341.66627574 41.81459045 339.2199707 C40.31240755 337.70571712 38.81290193 336.18880086 37.31663513 334.66870117 C33.37736775 330.69220725 29.33388655 326.93041075 25.09397888 323.27749634 C21.88076996 320.44581605 18.86622478 317.42310032 15.84375 314.390625 C15.19155991 313.73939163 14.53936981 313.08815826 13.86741638 312.41719055 C12.50584239 311.0562909 11.14550551 309.69415245 9.78637695 308.33081055 C7.69922101 306.238243 5.60670743 304.15113801 3.51367188 302.06445312 C2.1858767 300.73599806 0.85839128 299.40723332 -0.46875 298.078125 C-1.09470566 297.45419357 -1.72066132 296.83026215 -2.36558533 296.18742371 C-7.81588168 290.70723446 -7.81588168 290.70723446 -7.95013428 285.88705444 C-7.94440308 284.2650075 -7.93287966 282.64297536 -7.91699219 281.02099609 C-7.91220352 280.13622589 -7.90741486 279.25145569 -7.90248108 278.33987427 C-7.88473715 275.4022925 -7.85899942 272.46485452 -7.83203125 269.52734375 C-7.81534045 267.48670474 -7.79867823 265.44606549 -7.78204346 263.40542603 C-7.74551838 259.11968463 -7.70429054 254.83401424 -7.66064453 250.54833984 C-7.60581409 245.06752515 -7.56918177 239.58675239 -7.53701401 234.10576439 C-7.50908066 229.88649142 -7.46801879 225.66741833 -7.42340851 221.44829178 C-7.40426087 219.42861525 -7.38994061 217.40888681 -7.3806076 215.38914108 C-7.36620453 212.55515752 -7.3332414 209.72194544 -7.29589844 206.88818359 C-7.2956945 205.64563812 -7.2956945 205.64563812 -7.29548645 204.37799072 C-7.14130788 195.7534293 -4.4507623 189.1929796 1.515625 182.89453125 C7.14889334 177.92056394 13.67646329 174.31820006 20.15234375 170.56640625 C21.17440918 169.96924805 22.19647461 169.37208984 23.24951172 168.75683594 C32.89242238 163.12604221 42.5589598 157.53678482 52.3203125 152.11328125 C53.20356201 151.62182617 54.08681152 151.13037109 54.99682617 150.62402344 C57.15234375 149.56640625 57.15234375 149.56640625 59.15234375 149.56640625 C59.15234375 148.90640625 59.15234375 148.24640625 59.15234375 147.56640625 C58.45375244 147.30843262 57.75516113 147.05045898 57.03540039 146.78466797 C53.85616569 145.44125353 50.99737773 143.82630407 48.0234375 142.07421875 C47.44051437 141.73202805 46.85759125 141.38983734 46.25700378 141.03727722 C44.36575577 139.92566565 42.47763497 138.80887677 40.58984375 137.69140625 C39.28376909 136.9206854 37.97761618 136.15009713 36.67138672 135.37963867 C34.05771433 133.83693537 31.44559094 132.29165077 28.83447266 130.74462891 C25.57521697 128.81444954 22.30798473 126.8981445 19.0390625 124.984375 C17.28482845 123.94977435 15.53089746 122.91465959 13.77734375 121.87890625 C12.99544678 121.42338379 12.2135498 120.96786133 11.40795898 120.49853516 C3.80460213 115.97454202 -3.25274605 110.91441947 -6.84765625 102.56640625 C-7.47878455 99.56036553 -7.76953547 96.63442225 -7.84765625 93.56640625 C-3.98625403 95.0004647 -0.5497984 96.7978755 3 98.8828125 C3.56073212 99.21124146 4.12146423 99.53967041 4.69918823 99.87805176 C6.53994707 100.95796361 8.3774761 102.04323618 10.21484375 103.12890625 C11.50524298 103.88801891 12.79568968 104.64705086 14.08618164 105.40600586 C24.26094108 111.4014469 34.36721285 117.50801445 44.43579102 123.67993164 C46.57485837 124.98829323 48.71842004 126.28933906 50.86669922 127.58251953 C53.20365656 128.99358473 55.52058662 130.42394795 57.83251953 131.87451172 C59.06489011 132.62556057 60.29778767 133.3757455 61.53125 134.125 C62.63154541 134.80747803 63.73184082 135.48995605 64.86547852 136.19311523 C68.82608718 137.84790419 71.03454311 137.61489853 75.15234375 136.56640625 C77.97207306 134.20147199 78.13085206 132.73833975 78.58984375 129.06640625 C78.063814 124.85816822 77.30583947 124.26147713 74.15234375 121.56640625 C72.0344588 120.18062318 69.93365877 118.88043952 67.74609375 117.6171875 C67.11658813 117.24706039 66.48708252 116.87693329 65.83850098 116.49559021 C64.4836286 115.69954166 63.12725379 114.90604575 61.76953125 114.11486816 C59.63182224 112.8669263 57.50066354 111.60845462 55.37109375 110.34667969 C48.88263747 106.50527568 42.38243305 102.68783502 35.83654785 98.94499207 C33.21874562 97.44276547 30.61287253 95.92065255 28.0090332 94.39437866 C26.77612254 93.678565 25.53764629 92.97224874 24.29370117 92.27578735 C22.56641716 91.30782117 20.85876674 90.30506666 19.15234375 89.30078125 C18.18296875 88.74616211 17.21359375 88.19154297 16.21484375 87.62011719 C14.15234375 85.56640625 14.15234375 85.56640625 13.734375 81.96191406 C14.15234375 78.56640625 14.15234375 78.56640625 15.83984375 76.50390625 C18.15234375 75.56640625 18.15234375 75.56640625 20.4765625 76.32006836 C23.19973346 77.58847965 25.71435842 79.00407025 28.27734375 80.5703125 C29.23125 81.14587891 30.18515625 81.72144531 31.16796875 82.31445312 C33.15928811 83.52514402 35.14887248 84.73869314 37.13671875 85.95507812 C38.090625 86.52935547 39.04453125 87.10363281 40.02734375 87.6953125 C40.89101562 88.2219751 41.7546875 88.7486377 42.64453125 89.29125977 C46.26516707 91.13224311 48.8927631 91.91791713 52.83984375 90.81640625 C55.43795655 89.64519362 55.43795655 89.64519362 57.15234375 86.56640625 C57.73603818 83.15102481 57.73603818 83.15102481 57.15234375 79.56640625 C54.77505719 76.57781743 52.73599546 74.86471712 49.33984375 73.12890625 C48.61796875 72.61328125 47.89609375 72.09765625 47.15234375 71.56640625 C46.71484375 68.50390625 46.71484375 68.50390625 47.15234375 65.56640625 C49.15234375 63.56640625 49.15234375 63.56640625 51.9362793 63.25830078 C55.60611024 63.609878 57.49366123 64.55758718 60.609375 66.49609375 C61.6317627 67.12257813 62.65415039 67.7490625 63.70751953 68.39453125 C64.78243652 69.07 65.85735352 69.74546875 66.96484375 70.44140625 C68.07327637 71.11945313 69.18170898 71.7975 70.32373047 72.49609375 C74.52050917 75.06339183 78.70217475 77.65355918 82.86572266 80.27441406 C85.16120396 81.71916078 87.46827159 83.14353561 89.77734375 84.56640625 C90.4319458 84.9929248 91.08654785 85.41944336 91.76098633 85.85888672 C95.12839183 87.92307856 97.00296245 88.57323771 100.99609375 88.390625 C104.8078856 87.44352739 104.8078856 87.44352739 107.15234375 84.56640625 C108.14067463 81.31903335 108.48326355 79.41130788 107.234375 76.22265625 C104.15552709 72.29467017 100.27876509 70.35954781 95.96484375 67.94140625 C93.96298396 66.78872844 91.96171773 65.63501941 89.9609375 64.48046875 C88.87022949 63.8555957 87.77952148 63.23072266 86.65576172 62.58691406 C80.92412378 59.29229147 75.24646021 55.90566384 69.5640564 52.52709961 C67.5171949 51.31037342 65.46922934 50.09552173 63.42114258 48.88085938 C54.29359329 43.46253682 45.21326578 37.9702541 36.15234375 32.44140625 C27.1743552 26.96418978 18.14906095 21.62343956 8.93457031 16.5546875 C5.65564884 14.73645817 2.4051879 12.86826099 -0.84765625 11.00390625 C-1.45464355 10.65642334 -2.06163086 10.30894043 -2.68701172 9.95092773 C-4.07418505 9.15659664 -5.46096862 8.36158494 -6.84765625 7.56640625 C-6.03075135 2.39267523 -5.53045037 0.81412721 0 0 Z M66.15234375 92.56640625 C64.21347519 95.09536524 64.1465897 96.29596613 64.21484375 99.50390625 C65.43695546 103.49613783 66.76787402 105.11806645 70.15234375 107.56640625 C72.98797158 108.27674534 75.31516497 108.26426071 78.15234375 107.56640625 C81.13617205 105.57718739 82.75511216 104.18138057 83.62890625 100.62890625 C83.91582162 96.64229268 83.41732446 94.93270311 81.02734375 91.62890625 C75.14085323 87.40598913 71.63775261 87.95367607 66.15234375 92.56640625 Z " fill="#00F6A4" transform="translate(111.84765625,433.43359375)"/>
<path d="M0 0 C11.10556725 1.58067291 22.21110486 3.16142228 33.31439209 4.75804138 C44.6434674 6.38875513 44.6434674 6.38875513 55.98274231 7.94644165 C57.89295577 8.2025852 59.80233769 8.46490739 61.71166992 8.72753906 C63.86656276 9.02333637 66.022926 9.30870932 68.1809082 9.58105469 C76.05000762 10.68223052 82.74478816 12.72128249 87.9375 19.0625 C88.50339844 19.73410156 89.06929688 20.40570312 89.65234375 21.09765625 C91.77867807 24.09917745 92.12868995 26.67391399 92.17269325 30.24555302 C92.19228015 31.55153559 92.19228015 31.55153559 92.21226275 32.88390166 C92.22642593 34.31966768 92.22642593 34.31966768 92.24087524 35.78443909 C92.25468589 36.80083479 92.26849654 37.8172305 92.28272569 38.86442608 C92.32801826 42.28660966 92.36638282 45.70883618 92.40478516 49.13110352 C92.43571298 51.57834878 92.46704897 54.02558891 92.49876404 56.4728241 C92.57493532 62.44146324 92.64655058 68.41014115 92.71592261 74.37886191 C92.77242069 79.23284484 92.83073983 84.08680267 92.89036179 88.94074821 C92.8988411 89.63129483 92.90732042 90.32184144 92.91605669 91.0333137 C92.9332886 92.43618183 92.95052381 93.83904991 92.96776228 95.24191796 C93.12931687 108.4082424 93.28483316 121.57463298 93.43837802 134.74105292 C93.57014615 146.0270583 93.70740861 157.31298609 93.84863281 168.59887695 C94.01265633 181.70683006 94.17298311 194.8148203 94.32765996 207.92288727 C94.34419076 209.32277205 94.36072734 210.72265678 94.37726974 212.12254143 C94.3854078 212.81127691 94.39354586 213.50001239 94.40193052 214.20961865 C94.45940409 219.05157815 94.51952649 223.89350056 94.58070755 228.73541451 C94.66314312 235.26470051 94.73963917 241.79403799 94.81219673 248.32344246 C94.83969185 250.71714052 94.86908461 253.11081768 94.90053749 255.50446701 C94.94324917 258.77850099 94.97902007 262.05254172 95.01309204 265.32667542 C95.02699561 266.26823772 95.04089917 267.20980002 95.05522406 268.17989451 C95.20859516 285.56389792 95.20859516 285.56389792 91 291 C90 292 90 292 86.37890625 292.66796875 C78.52247195 292.54886156 72.10840751 286.6596525 65.9375 282.3125 C64.48970364 281.31524037 63.04029343 280.32032001 61.58935547 279.32763672 C59.33781056 277.78658919 57.08754311 276.24394384 54.84246826 274.69348145 C46.21217301 268.73615573 37.41676873 263.03604204 28.62277222 257.32461548 C22.28881119 253.20603001 15.97410744 249.05937263 9.78125 244.73046875 C8.92853516 244.13645264 8.07582031 243.54243652 7.19726562 242.93041992 C2.68411105 238.9653629 0.85508422 233.56525267 -1 228 C-1.0932487 226.08382165 -1.12629178 224.16450904 -1.12698364 222.24606323 C-1.12980347 221.04324203 -1.13262329 219.84042084 -1.13552856 218.60115051 C-1.13358338 217.26388535 -1.13153516 215.92662033 -1.12939453 214.58935547 C-1.13075026 213.18028213 -1.13253116 211.77120915 -1.13470459 210.36213684 C-1.13928768 206.50835358 -1.13747815 202.65459696 -1.1343255 198.8008132 C-1.13177204 194.69363432 -1.13415082 190.58645755 -1.13571167 186.47927856 C-1.13753901 179.50636396 -1.13512721 172.53345988 -1.13037109 165.56054688 C-1.12564997 158.56216731 -1.12543747 151.56380911 -1.13037109 144.56542969 C-1.16356002 96.36861341 -0.80568416 48.19024524 0 0 Z " fill="#00EB9D" transform="translate(1,540)"/>
<path d="M0 0 C22.79726891 0 22.79726891 0 31.3125 8.171875 C37.50159176 14.8767244 39.32131472 21.27513222 39.1953125 30.2421875 C39.1924826 31.01055939 39.18965271 31.77893127 39.18673706 32.57058716 C39.17561311 35.00555521 39.1505236 37.44014462 39.125 39.875 C39.11496011 41.53384882 39.10583603 43.19270346 39.09765625 44.8515625 C39.07569937 48.90118579 39.04122406 52.95052887 39 57 C39.93706787 56.68929565 39.93706787 56.68929565 40.89306641 56.37231445 C46.43213513 54.61093038 51.57078737 53.44185967 57.375 53.1875 C58.47171021 53.13505127 58.47171021 53.13505127 59.59057617 53.08154297 C76.8863991 52.47826649 90.95460288 58.83525434 103.62890625 70.3984375 C108.57774818 75.43038975 112.24822642 80.68876187 115.4375 86.9375 C115.75549561 87.55689453 116.07349121 88.17628906 116.40112305 88.81445312 C122.89203227 102.40746829 122.4590551 116.09204683 122.43359375 130.83203125 C122.43816307 133.15549369 122.44347086 135.47895478 122.44947815 137.80241394 C122.458381 142.65812694 122.45601895 147.51367522 122.44604492 152.36938477 C122.43456863 158.55571348 122.4547614 164.74147023 122.48396206 170.92772388 C122.50241412 175.72278892 122.50201354 180.51771922 122.49632454 185.3128109 C122.49617237 187.59190357 122.50212883 189.871006 122.51461601 192.15006447 C122.62237104 215.04030765 119.24723122 232.70286692 103 250 C91.24604267 261.00410359 77.76366413 266.60451109 61.6875 266.4375 C60.68074219 266.43137695 59.67398437 266.42525391 58.63671875 266.41894531 C47.98295963 266.19584791 39.0094754 263.86663514 30 258 C29.54109375 258.40992188 29.0821875 258.81984375 28.609375 259.2421875 C27.99578125 259.78101563 27.3821875 260.31984375 26.75 260.875 C26.14671875 261.40867187 25.5434375 261.94234375 24.921875 262.4921875 C16.83412211 268.83745705 12.62111812 266 0 266 C0 178.22 0 90.44 0 0 Z M44.1875 102.875 C39.63027315 109.38532407 38.55507364 114.43178103 38.61181641 122.20483398 C38.60655945 123.10008789 38.60130249 123.9953418 38.59588623 124.91772461 C38.58274283 127.86069475 38.59140503 130.80311863 38.6015625 133.74609375 C38.59953996 135.80200809 38.59662703 137.85792173 38.59286499 139.91383362 C38.58844914 144.21679534 38.59484829 148.51956986 38.60888672 152.82250977 C38.62596724 158.32467547 38.61613974 163.82640174 38.59816933 169.32855129 C38.58730236 173.57260925 38.59079139 177.81656392 38.5985527 182.06062508 C38.60054722 184.08871577 38.59812188 186.11681599 38.59111404 188.14489555 C38.58345282 190.98543829 38.59516954 193.8252806 38.61181641 196.66577148 C38.60574371 197.49563065 38.59967102 198.32548981 38.59341431 199.18049622 C38.6850725 207.66859047 41.26209256 214.08365649 47.125 220.30078125 C52.29415318 224.98532632 57.72719182 225.49042651 64.41796875 225.2890625 C67.84115474 224.90583139 70.14082719 223.90611521 73 222 C73.845625 221.484375 74.69125 220.96875 75.5625 220.4375 C83.68260465 212.31739535 83.6542684 203.15764222 83.69473267 192.30870056 C83.68578277 190.24615904 83.67552776 188.18362282 83.6640625 186.12109375 C83.66743541 183.98218002 83.67229198 181.84326817 83.67855835 179.70436096 C83.68590556 175.23509359 83.67529235 170.76632792 83.65185547 166.29711914 C83.62335215 160.58525689 83.63979594 154.87456867 83.66971779 149.16274929 C83.68783403 144.75046532 83.68201312 140.33845716 83.66907883 135.92616463 C83.66575769 133.82074912 83.6697861 131.71530808 83.68147659 129.60992241 C83.69425849 126.6617234 83.67470636 123.71539462 83.64697266 120.76733398 C83.65709381 119.90838028 83.66721497 119.04942657 83.67764282 118.16444397 C83.55139611 110.87486857 81.01990261 105.05308835 75.8671875 99.84375 C75.20976563 99.4003125 74.55234375 98.956875 73.875 98.5 C73.21242188 98.0359375 72.54984375 97.571875 71.8671875 97.09375 C62.04216791 91.3385084 51.29602031 95.05142144 44.1875 102.875 Z " fill="#00EB9D" transform="translate(991,518)"/>
<path d="M0 0 C0 87.78 0 175.56 0 266 C-18 266 -18 266 -24 263 C-24.680625 262.2575 -25.36125 261.515 -26.0625 260.75 C-26.701875 260.1725 -27.34125 259.595 -28 259 C-31.99116823 259.41719529 -35.40579907 260.90972804 -39.0625 262.5 C-52.02136723 268.12150104 -69.02791422 268.24859071 -82.2890625 263.25390625 C-98.95346975 255.54601759 -110.87643596 242.86704069 -118 226 C-122.79218749 212.51847645 -122.16237421 198.31394952 -122.16796875 184.203125 C-122.17118959 182.28179907 -122.17455426 180.36047339 -122.17805481 178.43914795 C-122.18401636 174.42492098 -122.18589778 170.41071545 -122.18530273 166.39648438 C-122.18520128 161.2920529 -122.19884949 156.18776105 -122.21607494 151.08336258 C-122.22727816 147.11785266 -122.2292194 143.15237562 -122.22869301 139.1868515 C-122.22986078 137.3068875 -122.23421355 135.42692231 -122.24202538 133.54697418 C-122.33357841 109.24059195 -119.53182207 88.12087808 -102.3125 69.625 C-89.6325789 57.65499672 -74.24820673 52.68815849 -57 53 C-50.34595564 53.57495431 -44.31350931 54.85524285 -38 57 C-38.02618408 55.96182129 -38.05236816 54.92364258 -38.0793457 53.85400391 C-38.17064759 49.95904558 -38.22753557 46.06417941 -38.2746582 42.16845703 C-38.29962211 40.49056023 -38.33360619 38.81277014 -38.37719727 37.13525391 C-38.66719546 25.67861954 -38.25569114 17.39205679 -30.6875 8.1875 C-20.4640809 -0.13388764 -14.14116914 0 0 0 Z M-78.375 103.9375 C-82.74245848 109.87870749 -83.29631034 115.76710483 -83.2746582 122.8918457 C-83.27976913 123.76584015 -83.28488007 124.63983459 -83.29014587 125.54031372 C-83.30400309 128.4188733 -83.30308774 131.29719235 -83.30078125 134.17578125 C-83.30467085 136.18588855 -83.30900606 138.19599504 -83.31376648 140.20610046 C-83.32122078 144.41664291 -83.32094352 148.62710151 -83.31567383 152.83764648 C-83.30988616 158.21753521 -83.32679715 163.59707887 -83.3500185 168.97691059 C-83.36479519 173.12835172 -83.36562208 177.27971055 -83.36250877 181.43117332 C-83.3630202 183.41378652 -83.36822422 185.39640453 -83.37832069 187.37899208 C-83.39074153 190.15954202 -83.3838593 192.9394303 -83.37231445 195.7199707 C-83.37995819 196.52910416 -83.38760193 197.33823761 -83.39547729 198.17189026 C-83.3215916 206.27629675 -81.39564062 213.50919003 -75.71875 219.4921875 C-70.2383869 224.29996058 -64.92782479 225.69597565 -57.67578125 225.375 C-51.36811822 224.49100635 -47.50322006 222.0089782 -43.625 217 C-38.54498713 209.73473019 -37.85153354 203.28662604 -37.83886719 194.49121094 C-37.83390228 193.65783707 -37.82893738 192.8244632 -37.82382202 191.96583557 C-37.80927528 189.22200682 -37.80241076 186.4782359 -37.796875 183.734375 C-37.79404762 182.79252602 -37.79122025 181.85067703 -37.78830719 180.88028717 C-37.77334434 175.89561179 -37.76409669 170.91096514 -37.75976562 165.92626953 C-37.75428682 160.79760151 -37.73026286 155.66919975 -37.70179367 150.54061508 C-37.68309712 146.57872773 -37.67795795 142.61690362 -37.67642975 138.65497589 C-37.67341829 136.76528723 -37.66544115 134.87559927 -37.65224457 132.98595428 C-37.27936815 114.82143893 -37.27936815 114.82143893 -46.19921875 99.62890625 C-51.60982932 94.73470971 -56.71312291 94.40001701 -63.80859375 94.59375 C-70.47780812 95.44270752 -74.27671723 98.81710355 -78.375 103.9375 Z " fill="#00E79A" transform="translate(1266,518)"/>
<path d="M0 0 C14.47001461 11.60158999 24.6107297 26.24757922 27 45 C27.55035845 52.8379182 27.42311274 60.71017127 27.3984375 68.5625 C27.40046257 70.84448336 27.40337761 73.1264661 27.40713501 75.40844727 C27.41153793 80.17242645 27.40519299 84.93623597 27.39111328 89.70019531 C27.37402286 95.77563487 27.38387497 101.85067668 27.40183067 107.92610168 C27.41272354 112.63272036 27.409197 117.3392463 27.4014473 122.04586792 C27.39946048 124.28473967 27.40185053 126.52362011 27.40888596 128.76248169 C27.46465247 151.49125331 24.51583107 169.888516 8 187 C1.98618662 192.61033069 -4.38644602 196.88375465 -12 200 C-12.75925781 200.3196875 -13.51851562 200.639375 -14.30078125 200.96875 C-28.93994382 206.01190648 -46.90401262 204.37640626 -60.65234375 197.71484375 C-67.22943205 194.0766701 -72.65097605 189.23719767 -78 184 C-78.55429687 183.48179687 -79.10859375 182.96359375 -79.6796875 182.4296875 C-83.36168907 178.62826966 -85.75342061 174.0912781 -88.1875 169.4375 C-88.52088379 168.81931396 -88.85426758 168.20112793 -89.19775391 167.56420898 C-95.9945558 153.95179171 -95.4471757 139.08841056 -95.3984375 124.28515625 C-95.40046353 122.09907433 -95.40337935 119.91299308 -95.40713501 117.72691345 C-95.41153438 113.16561388 -95.40520529 108.60449168 -95.39111328 104.04321289 C-95.37403328 98.23591242 -95.38387064 92.4290284 -95.40183067 86.6217432 C-95.41274203 82.11320435 -95.40918849 77.60476199 -95.4014473 73.09622002 C-95.39946502 70.95668932 -95.40183407 68.81714947 -95.40888596 66.67762947 C-95.46837845 43.55948714 -92.8167075 24.43457375 -76 7 C-55.70349948 -12.30275494 -23.4752437 -16.67432751 0 0 Z M-51 39 C-58.10320935 48.07788399 -56.70699837 59.56220664 -56.62890625 70.44140625 C-56.62973606 72.53547794 -56.63219966 74.62954955 -56.63621521 76.72361755 C-56.63906433 81.09874221 -56.62445716 85.47335242 -56.59692383 89.84838867 C-56.5628219 95.43906823 -56.56887503 101.02882989 -56.5875864 106.61955357 C-56.59818474 110.93917917 -56.58919314 115.2585934 -56.57420158 119.57819939 C-56.56904156 121.63894967 -56.56947493 123.69972223 -56.57574654 125.76046944 C-56.5812339 128.6462113 -56.56071195 131.53066496 -56.53344727 134.41625977 C-56.53997314 135.25651199 -56.54649902 136.09676422 -56.55322266 136.96247864 C-56.4421184 143.92383972 -54.57433697 149.98822686 -50 155.33984375 C-49.34 155.86707031 -48.68 156.39429688 -48 156.9375 C-47.01 157.75541016 -47.01 157.75541016 -46 158.58984375 C-40.20556793 162.67537105 -34.96998617 162.71534069 -28 162 C-21.91955279 160.20762937 -17.55506902 155.03712946 -14 150 C-11.55436082 145.32490766 -11.70408288 140.9097513 -11.70947266 135.76269531 C-11.70275543 134.84007904 -11.69603821 133.91746277 -11.68911743 132.96688843 C-11.67013987 129.92057895 -11.66621309 126.8744899 -11.6640625 123.828125 C-11.65763351 121.7044872 -11.65090507 119.5808503 -11.64389038 117.45721436 C-11.63191757 113.00530953 -11.62820948 108.55348229 -11.62939453 104.1015625 C-11.62959751 98.41105488 -11.60231684 92.72104785 -11.56785011 87.03065872 C-11.54555422 82.64330789 -11.54155785 78.25607691 -11.54261398 73.86867523 C-11.54026126 71.7716169 -11.53145634 69.67455511 -11.51594925 67.5775528 C-11.49623884 64.63631209 -11.50214773 61.69614269 -11.51416016 58.75488281 C-11.49730164 57.46869553 -11.49730164 57.46869553 -11.48010254 56.15652466 C-11.55261962 49.12950673 -13.4341607 43.1689438 -17.89453125 37.66015625 C-23.03267176 33.3801166 -27.18680673 31.40565886 -33.9375 30.6875 C-40.56416746 31.36369056 -46.56492282 33.89164235 -51 39 Z " fill="#00F5A3" transform="translate(706,581)"/>
<path d="M0 0 C14.38081848 -0.61824079 28.32936393 3.98583843 39.15234375 13.41015625 C40.77576578 14.97374061 42.3802079 16.55727623 43.96484375 18.16015625 C45.14046875 19.30291016 45.14046875 19.30291016 46.33984375 20.46875 C58.08630271 32.55252281 63.18633307 47.55418106 63.00219727 64.20996094 C62.98987061 64.85352539 62.97754395 65.49708984 62.96484375 66.16015625 C59.46491572 66.21884957 55.96511655 66.25398334 52.46484375 66.28515625 C51.48257813 66.30191406 50.5003125 66.31867188 49.48828125 66.3359375 C40.85435948 66.39349698 33.96666324 65.74090753 26.96484375 60.16015625 C24.10705027 57.30148291 21.47048126 54.25497543 18.8203125 51.20507812 C14.69810788 46.59588274 11.16641074 43.60106684 4.81640625 42.7265625 C-2.88439087 42.7172395 -8.86809285 43.16019314 -14.59375 48.65625 C-18.92609471 53.5776954 -19.52159102 57.90865713 -19.4296875 64.25 C-18.5083182 71.04623889 -13.94389392 75.63512004 -8.97265625 80.03515625 C1.22274447 87.74312487 13.39179617 93.13076584 24.99438477 98.37133789 C32.53971676 101.78504789 38.84086285 105.46369854 44.96484375 111.16015625 C45.60679687 111.72347656 46.24875 112.28679687 46.91015625 112.8671875 C57.31276195 122.48171701 62.36450844 136.18081195 63.203125 150.12109375 C63.56699952 164.58428621 61.90387874 178.25536666 52.96484375 190.16015625 C52.413125 190.91554688 51.86140625 191.6709375 51.29296875 192.44921875 C41.98858199 204.02005869 28.38633738 210.58379922 13.96484375 213.16015625 C-4.32632263 214.46950613 -20.96057574 213.06374074 -35.61132812 200.84570312 C-48.38498676 189.47917947 -57.04006814 175.415546 -59.03515625 158.16015625 C-59.10978244 154.82486731 -59.09448176 151.49556839 -59.03515625 148.16015625 C-54.86862439 148.07237819 -50.70233349 148.01950353 -46.53515625 147.97265625 C-45.36210937 147.94751953 -44.1890625 147.92238281 -42.98046875 147.89648438 C-35.33494012 147.83205576 -29.20026958 148.0662861 -22.86328125 152.7734375 C-22.3425 153.33417969 -21.82171875 153.89492188 -21.28515625 154.47265625 C-20.71410156 155.08496094 -20.14304687 155.69726562 -19.5546875 156.328125 C-18.03515625 158.16015625 -18.03515625 158.16015625 -15.97265625 161.28515625 C-12.97872681 165.72776122 -9.07163425 169.16673413 -4.03515625 171.16015625 C4.18027575 172.04001572 11.94283533 171.86827631 18.96484375 167.16015625 C22.12643457 163.89976571 22.88021049 160.99238335 23.33984375 156.47265625 C23.23190331 150.57910832 20.27780014 146.77214922 16.484375 142.48828125 C6.5749864 132.96438374 -6.9195693 126.65379237 -19.03515625 120.47265625 C-26.38733193 116.7024114 -32.99475592 112.88023232 -39.03515625 107.16015625 C-39.81890625 106.45375 -40.60265625 105.74734375 -41.41015625 105.01953125 C-52.43821409 94.64445052 -58.31077368 81.53652509 -59.2734375 66.41796875 C-59.73321115 49.30693332 -56.14535213 34.1636675 -44.72265625 20.91015625 C-32.22276346 7.72047004 -17.94330727 1.41204529 0 0 Z " fill="#00F9A5" transform="translate(517.03515625,570.83984375)"/>
<path d="M0 0 C3.26687818 1.54550518 5.23261849 3.62942036 7.70703125 6.2578125 C11.42880208 10.18061328 15.24188923 13.80040927 19.33520508 17.33398438 C22.66542488 20.24294223 25.86876158 23.28348594 29.08203125 26.3203125 C30.48791295 27.64362056 31.89416786 28.96653222 33.30078125 30.2890625 C33.99171875 30.93875 34.68265625 31.5884375 35.39453125 32.2578125 C39.84236901 36.4276604 44.33170122 40.55264659 48.81787109 44.68115234 C51.51264065 47.1622765 54.20337518 49.64777041 56.89453125 52.1328125 C60.11980877 55.11077205 63.34558291 58.08818133 66.57421875 61.0625 C73.07294757 67.05175873 79.54692376 73.06625882 85.99267578 79.11254883 C90.39330841 83.23058786 94.86881519 87.24082847 99.44140625 91.16796875 C102.65720859 94.40306591 104.82278379 97.54383843 104.83203125 102.1953125 C104.39453125 106.1328125 104.39453125 106.1328125 102.87431335 108.24151611 C99.58636296 110.74919156 96.24471991 111.48635536 92.28051758 112.33105469 C91.46533661 112.51695663 90.65015564 112.70285858 89.81027222 112.89439392 C87.11875143 113.50410897 84.42304059 114.09231813 81.7265625 114.6796875 C79.847892 115.0989389 77.96945149 115.51922211 76.0912323 115.94049072 C72.15323267 116.82039121 68.21316206 117.69009117 64.27124023 118.55224609 C59.23512488 119.65421339 54.20408416 120.77755042 49.17433643 121.90818405 C45.29390913 122.77860318 41.41139041 123.6393672 37.52814293 124.49710846 C35.67335866 124.90763133 33.81913082 125.32067706 31.96549416 125.73635101 C29.36415199 126.31778479 26.76035154 126.88659239 24.15551758 127.45214844 C23.02126091 127.70921822 23.02126091 127.70921822 21.86408997 127.97148132 C13.27721983 129.80460174 5.43587813 129.90305122 -2.60546875 126.1328125 C-9.08183822 121.74976815 -14.61911321 116.38195793 -20.078125 110.8203125 C-20.8454747 110.04776123 -21.6128244 109.27520996 -22.40342712 108.47924805 C-24.82982182 106.03521565 -27.24935909 103.58454717 -29.66796875 101.1328125 C-32.09101738 98.6819683 -34.5155905 96.23268199 -36.94322205 93.78637695 C-38.44540495 92.27212337 -39.94491057 90.75520711 -41.44117737 89.23510742 C-45.39251188 85.24643234 -49.44875991 81.47208987 -53.70188904 77.80807495 C-56.69132497 75.17719497 -59.49129665 72.3709656 -62.29296875 69.54296875 C-62.88094238 68.95358017 -63.46891602 68.36419159 -64.07470703 67.75694275 C-65.92069236 65.90543632 -67.76313767 64.05045433 -69.60546875 62.1953125 C-70.86955725 60.92619877 -72.13387831 59.65731661 -73.3984375 58.38867188 C-76.47013599 55.3060493 -79.53866883 52.22030822 -82.60546875 49.1328125 C-80.60546875 48.1328125 -80.60546875 48.1328125 -77.98046875 48.3203125 C-70.55066563 47.90754566 -64.38253194 42.76617002 -58.54296875 38.5078125 C-57.03235809 37.4242348 -55.52062045 36.34222665 -54.0078125 35.26171875 C-53.26128418 34.72820801 -52.51475586 34.19469727 -51.74560547 33.64501953 C-48.7371758 31.51928221 -45.68005691 29.47371384 -42.60546875 27.4453125 C-36.13363873 23.16768957 -29.70570326 18.82673326 -23.29003906 14.46542358 C-21.6430236 13.34584096 -19.99534753 12.22723036 -18.34765625 11.10864258 C-17.31898438 10.40892334 -16.2903125 9.7092041 -15.23046875 8.98828125 C-14.25207031 8.32618652 -13.27367187 7.6640918 -12.265625 6.98193359 C-10.00020455 5.40720025 -7.83862156 3.75866497 -5.66796875 2.05859375 C-2.60546875 0.1328125 -2.60546875 0.1328125 0 0 Z " fill="#00EB9C" transform="translate(190.60546875,678.8671875)"/>
<path d="M0 0 C0 13.53 0 27.06 0 41 C-2.97 41.99 -5.94 42.98 -9 44 C-15.43284764 47.64528033 -18.03496328 51.19785694 -21 58 C-21.33 61.63 -21.66 65.26 -22 69 C-14.41 69 -6.82 69 1 69 C1 82.86 1 96.72 1 111 C-6.59 111 -14.18 111 -22 111 C-21.99555878 112.59391571 -21.99111755 114.18783142 -21.98654175 115.83004761 C-21.94596084 130.86682902 -21.91587856 145.90359025 -21.89637566 160.94041252 C-21.88608213 168.67058391 -21.87205875 176.40071431 -21.84912109 184.13085938 C-21.82912813 190.87186116 -21.8162696 197.61283323 -21.81182301 204.35386384 C-21.80922559 207.92008845 -21.80316103 211.48622811 -21.78853989 215.05242538 C-21.77231442 219.04263763 -21.77202409 223.03270405 -21.77294922 227.02294922 C-21.76575867 228.19324173 -21.75856812 229.36353424 -21.75115967 230.56929016 C-21.77799644 241.29854325 -22.55574466 250.77048565 -30 259 C-40.59863759 267.60913224 -45.26440247 266 -61 266 C-61 214.85 -61 163.7 -61 111 C-67.6 111 -74.2 111 -81 111 C-81 97.14 -81 83.28 -81 69 C-74.4 69 -67.8 69 -61 69 C-61.061875 66.7725 -61.12375 64.545 -61.1875 62.25 C-61.30631274 43.99442287 -53.28753488 28.94545862 -40.984375 15.85546875 C-29.95981856 5.17798168 -15.2068023 0 0 0 Z " fill="#00F2A1" transform="translate(845,518)"/>
<path d="M0 0 C21.83298097 0 21.83298097 0 31 8 C36.59805717 14.75748742 38.13227776 19.66600559 38.09765625 28.390625 C38.0962413 29.09523865 38.09482635 29.79985229 38.09336853 30.52581787 C38.08778933 32.76725584 38.07524073 35.00859243 38.0625 37.25 C38.05748231 38.77343605 38.05291987 40.29687368 38.04882812 41.8203125 C38.03867934 45.5469451 38.01910009 49.2733596 38 53 C45.59 53 53.18 53 61 53 C61 66.86 61 80.72 61 95 C53.41 95 45.82 95 38 95 C38.06300385 108.90888278 38.13848754 122.81754605 38.23571491 136.72623253 C38.28037124 143.18515135 38.31963803 149.64400778 38.34643555 156.10302734 C38.37251544 162.34067188 38.41295155 168.57807571 38.46318626 174.81557083 C38.4798232 177.19086327 38.49135717 179.56619731 38.49761391 181.94153976 C38.50728929 185.27817547 38.5353907 188.61419976 38.56762695 191.95068359 C38.56619186 192.9246106 38.56475677 193.8985376 38.5632782 194.90197754 C38.6829308 203.70523771 40.28904793 212.05424748 46 219 C47.97167206 220.8101275 49.99312492 222.54713099 52.03515625 224.27734375 C57.48976066 229.05961124 60.70846109 233.82503745 61.22705078 241.25146484 C61.21657715 242.39309082 61.20610352 243.5347168 61.1953125 244.7109375 C61.18886719 245.95488281 61.18242188 247.19882812 61.17578125 248.48046875 C61.15064453 250.40826172 61.15064453 250.40826172 61.125 252.375 C61.11597656 253.68339844 61.10695313 254.99179687 61.09765625 256.33984375 C61.07415085 259.5600837 61.04129087 262.77994707 61 266 C45.07725767 266.45888287 33.22055078 262.1919069 21 252 C9.50930074 241.14863288 0.89212311 226.32197539 -0.18112564 210.29527092 C-0.24454404 207.24382425 -0.24754122 204.19828294 -0.22705078 201.14624023 C-0.22734283 199.99400467 -0.22763489 198.8417691 -0.22793579 197.65461731 C-0.22655022 193.87253099 -0.21102528 190.09064536 -0.1953125 186.30859375 C-0.19157963 183.67586881 -0.18873395 181.04314248 -0.18673706 178.41041565 C-0.18054293 172.20580375 -0.16416039 166.00126308 -0.14403808 159.79668242 C-0.12161438 152.72769445 -0.11066944 145.65870292 -0.10064721 138.58968818 C-0.0797921 124.05975029 -0.04314199 109.52988932 0 95 C-7.26 95 -14.52 95 -22 95 C-22 81.14 -22 67.28 -22 53 C-14.74 53 -7.48 53 0 53 C0 35.51 0 18.02 0 0 Z " fill="#00EF9F" transform="translate(899,518)"/>
<path d="M0 0 C41.58 0 83.16 0 126 0 C126 9.57 126 19.14 126 29 C84.42 29 42.84 29 0 29 C0 19.43 0 9.86 0 0 Z " fill="#00FDA8" transform="translate(299,643)"/>
<path d="M0 0 C4.35120018 -0.72108795 6.85150253 0.77092142 10.48828125 3.05078125 C12.11358765 4.0555249 12.11358765 4.0555249 13.77172852 5.08056641 C14.34754669 5.44353821 14.92336487 5.80651001 15.51663208 6.18048096 C17.97218603 7.72833078 20.44219718 9.25236919 22.91184998 10.77758789 C24.22358122 11.58777333 25.53457221 12.39915837 26.84486389 13.21166992 C35.18448138 18.37440125 43.64091221 23.34034791 52.09048462 28.32022095 C74.58294775 41.58294775 74.58294775 41.58294775 78 45 C77.9375 48 77.9375 48 77 51 C74.80688477 52.37036133 74.80688477 52.37036133 72 53 C69.21459961 51.9362793 69.21459961 51.9362793 66.15234375 50.07421875 C65.59170227 49.74022064 65.03106079 49.40622253 64.45343018 49.06210327 C62.60383374 47.95436541 60.77116412 46.82138267 58.9375 45.6875 C57.64655273 44.90717651 56.35462595 44.12847139 55.06176758 43.35131836 C52.37519194 41.73192148 49.69566736 40.10169302 47.02148438 38.46191406 C43.16658546 36.09834168 39.29633622 33.76101261 35.421875 31.4296875 C30.69344422 28.58217946 25.97857717 25.71397105 21.2734375 22.828125 C17.44815937 20.48244646 13.60742324 18.17430793 9.7265625 15.921875 C8.58537964 15.24692993 8.58537964 15.24692993 7.42114258 14.55834961 C6.07343672 13.76208436 4.71712064 12.98010394 3.3503418 12.21704102 C0.29617951 10.38626067 -0.88438461 9.34950398 -2.01953125 5.91796875 C-2 3 -2 3 0 0 Z " fill="#00DD94" transform="translate(77,446)"/>
<path d="M0 0 C4.97331808 0.50334186 8.47966686 2.17114518 12.625 4.8125 C13.93190773 5.62171415 15.239223 6.43027036 16.546875 7.23828125 C17.25134766 7.67736816 17.95582031 8.11645508 18.68164062 8.56884766 C23.04813089 11.26433691 27.4669557 13.87323465 31.875 16.5 C33.6025523 17.52959102 35.32919167 18.56071622 37.0546875 19.59375 C37.79187012 20.03396484 38.52905273 20.47417969 39.28857422 20.92773438 C41 22 41 22 42 23 C42.3125 25.875 42.3125 25.875 42 29 C40.25 30.9375 40.25 30.9375 38 32 C34.04436242 31.52845224 30.78459206 29.33197994 27.40625 27.359375 C26.77771118 26.99531555 26.14917236 26.6312561 25.50158691 26.25616455 C24.17546492 25.48542663 22.85090966 24.71198752 21.52783203 23.93603516 C19.51297819 22.75759066 17.48937087 21.5953207 15.46484375 20.43359375 C14.17390997 19.68066257 12.88352668 18.92678659 11.59375 18.171875 C10.69203064 17.65750885 10.69203064 17.65750885 9.77209473 17.13275146 C6.01747946 14.90437331 3.45474737 12.6124593 1 9 C0.390625 6.54296875 0.390625 6.54296875 0.25 4.1875 C0.19328125 3.39730469 0.1365625 2.60710937 0.078125 1.79296875 C0.05234375 1.20128906 0.0265625 0.60960937 0 0 Z " fill="#00DD93" transform="translate(79,480)"/>
</svg>
